<svg width="49" height="47" viewBox="0 0 49 47" fill="none" xmlns="http://www.w3.org/2000/svg">
<path d="M9.32876 0.405518H39.9286C44.5684 0.405518 48.3189 4.15647 48.3189 8.7958V38.2111C48.3189 42.8505 44.5684 46.6014 39.9286 46.6014H9.32876C4.68943 46.6014 0.938477 42.8505 0.938477 38.2111V8.7958C0.938477 4.15647 4.68943 0.405518 9.32876 0.405518Z" fill="#00005B"/>
<path d="M13.7711 24.1152H18.7851C18.6667 23.7007 18.5087 23.2075 18.331 22.6942C18.1538 22.1608 17.9757 21.5887 17.7984 20.9964C17.6006 20.384 17.4229 19.7918 17.2255 19.1802C17.0285 18.5682 16.8508 17.9957 16.6925 17.4232C16.5345 16.8704 16.3963 16.3567 16.2582 15.8829H16.2187C16.041 16.7322 15.8238 17.5807 15.5474 18.43C15.2513 19.3776 14.9556 20.3647 14.6393 21.3518C14.3827 22.3586 14.0672 23.2865 13.7711 24.1152ZM19.9696 28.0443H12.6257L11.1253 32.7029C11.0858 32.881 10.9283 32.9995 10.7506 32.9797H7.03872C6.82156 32.9797 6.76233 32.8613 6.82156 32.6244L13.1784 14.4027C13.2377 14.2052 13.2969 14.0276 13.3758 13.7907C13.4548 13.3761 13.4943 12.9418 13.4943 12.5074C13.475 12.4087 13.5535 12.31 13.6526 12.2903H18.7658C18.9036 12.2903 19.0023 12.3495 19.022 12.4478L26.2278 32.6836C26.287 32.9004 26.2278 32.9995 26.0304 32.9995H21.9043C21.7661 33.0188 21.6279 32.9205 21.5889 32.7823" fill="#9999FF"/>
<path d="M31.6766 23.3453H35.8421C36.3554 23.3453 36.7305 23.3453 36.9674 23.3259C37.1253 23.3062 37.2837 23.2667 37.4214 23.168V22.9706C37.4214 22.7139 37.3815 22.477 37.303 22.2401C36.9476 21.1346 35.9013 20.384 34.737 20.4239C33.6507 20.3647 32.6242 20.9372 32.1109 21.9243C31.874 22.3783 31.7354 22.8521 31.6766 23.3453ZM37.9351 26.228H31.6766C31.7555 26.84 31.9529 27.452 32.2886 27.985C32.6439 28.518 33.1375 28.9326 33.7301 29.1695C34.5194 29.5051 35.388 29.6828 36.2567 29.6631C36.9476 29.6433 37.6386 29.5841 38.3098 29.4459C38.9218 29.3669 39.5141 29.209 40.0668 28.9918C40.1656 28.9129 40.2248 28.9519 40.2248 29.1498V32.1703C40.2248 32.2492 40.205 32.3282 40.1853 32.4072C40.1458 32.4664 40.1063 32.5059 40.0471 32.5454C39.4154 32.8218 38.7639 33.0192 38.0729 33.1376C37.1451 33.3153 36.2172 33.3943 35.2696 33.3745C33.7692 33.3745 32.5057 33.1376 31.4791 32.6836C30.5114 32.269 29.6629 31.6175 28.9917 30.8077C28.3599 30.0382 27.9059 29.1695 27.6299 28.2219C27.3531 27.294 27.2149 26.3267 27.2149 25.3392C27.2149 24.2735 27.3728 23.2268 27.7085 22.2002C28.0243 21.2136 28.5179 20.3054 29.1891 19.496C29.8406 18.7063 30.65 18.0746 31.5779 17.6205C32.5057 17.1665 33.6117 17.0081 34.8747 17.0081C35.9211 16.9888 36.9674 17.1858 37.9351 17.6205C38.7441 17.9759 39.4548 18.5089 40.0076 19.1995C40.5209 19.8711 40.9355 20.6209 41.1921 21.4505C41.4488 22.2401 41.5672 23.0495 41.5672 23.859C41.5672 24.3328 41.5475 24.7473 41.5277 25.1224C41.4887 25.4975 41.4685 25.7739 41.4488 25.9516C41.429 26.0898 41.3106 26.2082 41.1724 26.2082C41.0539 26.2082 40.8368 26.228 40.5209 26.2477C40.205 26.2872 39.8299 26.3069 39.3759 26.3069C38.9218 26.3069 38.448 26.228 37.9351 26.228Z" fill="#9999FF"/>
</svg>
