<svg width="48" height="47" viewBox="0 0 48 47" fill="none" xmlns="http://www.w3.org/2000/svg">
<path d="M8.95226 0.327881H39.4994C44.1308 0.327881 47.8753 4.07883 47.8753 8.71816V38.1335C47.8753 42.7728 44.1308 46.5238 39.4994 46.5238H8.95226C4.32091 46.5238 0.576416 42.7728 0.576416 38.1335V8.71816C0.576416 4.07883 4.32091 0.327881 8.95226 0.327881Z" fill="#330000"/>
<path d="M23.4968 28.0453H16.1654L14.6676 32.6846C14.6282 32.8623 14.4706 32.9807 14.2932 32.961H10.5881C10.3713 32.961 10.3122 32.8425 10.3713 32.6056L16.7173 14.3049C16.7764 14.1075 16.8355 13.8904 16.9143 13.6535C16.9932 13.2389 17.0326 12.8046 17.0326 12.3702C17.0129 12.2715 17.0917 12.1728 17.1902 12.1531H22.2946C22.4522 12.1531 22.5311 12.2123 22.5508 12.311L29.7441 32.6451C29.8033 32.8623 29.7441 32.961 29.5471 32.961H25.4281C25.2902 32.9807 25.1522 32.882 25.1128 32.7438L23.4968 28.0453ZM17.3085 24.0377H22.3143C22.196 23.6231 22.0384 23.1295 21.861 22.6163C21.6836 22.0832 21.5063 21.5107 21.3289 20.9185C21.1318 20.3065 20.9544 19.7142 20.7574 19.1022C20.5603 18.4902 20.3829 17.9177 20.2252 17.3452C20.0676 16.7924 19.9296 16.2791 19.7917 15.8053H19.7523C19.5749 16.6542 19.3581 17.5031 19.0822 18.352C18.7866 19.2996 18.491 20.2867 18.1756 21.2738C17.8997 22.2806 17.6041 23.2085 17.3085 24.0377Z" fill="#FF9A00"/>
<path d="M34.0405 15.5289C33.3901 15.5487 32.7595 15.292 32.2865 14.838C31.8332 14.3444 31.5967 13.6929 31.6164 13.0217C31.5967 12.3505 31.8529 11.7188 32.3259 11.2647C32.7989 10.8106 33.4296 10.5737 34.0799 10.5737C34.8485 10.5737 35.4398 10.8106 35.8733 11.2647C36.3069 11.7385 36.5434 12.3702 36.5237 13.0217C36.5434 13.6929 36.3069 14.3444 35.8339 14.838C35.3806 15.3118 34.7106 15.5684 34.0405 15.5289ZM31.8332 32.6649V17.4636C31.8332 17.2662 31.9121 17.1872 32.0894 17.1872H35.9916C36.169 17.1872 36.2478 17.286 36.2478 17.4636V32.6649C36.2478 32.882 36.169 32.9807 35.9916 32.9807H32.1288C31.9318 32.9807 31.8332 32.8623 31.8332 32.6649Z" fill="#FF9A00"/>
</svg>
