<svg xmlns="http://www.w3.org/2000/svg" viewBox="0 0 5456.16 3523.92"><defs><style>.cls-1{fill:#3a0ca3;}.cls-2{fill:#cecece;}.cls-3{fill:#fff;}.cls-4{fill:#e0e0e0;}.cls-5{fill:#ededed;}.cls-6{fill:#939393;}.cls-7{fill:#9e9e9e;}.cls-35,.cls-8{fill:#020202;}.cls-8{opacity:0.08;}.cls-9{fill:#777;}.cls-10{fill:#bfbfbf;}.cls-11{fill:#e6e7e9;}.cls-12{fill:#b8b9bb;}.cls-13{fill:#fefcfe;}.cls-14{fill:#1b1f21;}.cls-15{fill:#475059;}.cls-16{fill:#cbc0d3;}.cls-17{fill:#f4ba2e;}.cls-18{fill:#ffdb92;}.cls-19{fill:#ffcc5a;}.cls-20{fill:#2d3538;}.cls-21{fill:#cecfd1;}.cls-22,.cls-23{fill:#231f20;}.cls-22{opacity:0.15;}.cls-23{opacity:0.2;}.cls-24{fill:#dedede;}.cls-25{fill:#3a4349;}.cls-26{fill:#6b3e1f;}.cls-27{fill:#f6f4f4;}.cls-28{fill:#252b2d;}.cls-29{fill:#414a51;}.cls-30{fill:#323b3f;}.cls-31{fill:#8e6040;}.cls-32{fill:#eaeaea;}.cls-33{fill:#b2b2b2;}.cls-34{fill:#848484;}.cls-35{opacity:0.26;}.cls-36{fill:#edbe85;}.cls-37{fill:#fff2e6;}.cls-38{fill:#e2e2e2;}.cls-39{fill:#31373a;}</style></defs><g id="Layer_2" data-name="Layer 2"><g id="Layer_2-2" data-name="Layer 2"><rect class="cls-1" x="4258.09" y="2687.18" width="14" height="168.72" transform="translate(5264.26 -2215.85) rotate(68.31)"/><rect class="cls-2" x="4332.75" y="2737.36" width="14" height="8.97" transform="translate(3395.75 7787.64) rotate(-111.69)"/><rect class="cls-3" x="4342.08" y="2706.91" width="43.45" height="50.93" rx="1.9" transform="translate(5290.12 -2332.27) rotate(68.31)"/><rect class="cls-3" x="4398.98" y="2645.81" width="75.15" height="115.85" rx="10.51" transform="translate(5309.37 -2417.92) rotate(68.31)"/><path class="cls-4" d="M4402.51,2758.92a12.54,12.54,0,0,0,4.61-.89l88.12-35a12.55,12.55,0,0,0,7-16.25l-20-50.29a12.54,12.54,0,0,0-16.25-7l-88.12,35a12.53,12.53,0,0,0-7,16.25l20,50.29A12.53,12.53,0,0,0,4402.51,2758.92Zm68.08-106.36a8.55,8.55,0,0,1,3.39.71,8.45,8.45,0,0,1,4.54,4.65l20,50.3a8.53,8.53,0,0,1-4.76,11.05l-88.12,35.05a8.52,8.52,0,0,1-11.05-4.77l-20-50.29a8.52,8.52,0,0,1,4.77-11.05l88.12-35.05A8.44,8.44,0,0,1,4470.59,2652.56Z"/><rect class="cls-5" x="4619.84" y="2142.11" width="451.97" height="797.72" rx="47.41" transform="matrix(-0.37, -0.93, 0.93, -0.37, 4275.5, 7982.78)"/><rect class="cls-6" x="4631.44" y="2230.83" width="426.22" height="621" transform="translate(4273.43 7982.09) rotate(-111.69)"/><path class="cls-7" d="M4501,2613.74l43.89,110.38a6.69,6.69,0,0,1-3.74,8.69h0a6.7,6.7,0,0,1-8.7-3.74l-43.9-110.38a6.7,6.7,0,0,1,3.75-8.7h0A6.71,6.71,0,0,1,4501,2613.74Z"/><path class="cls-8" d="M4435.59,2460.75,5088.73,2201a47.52,47.52,0,0,1,61.6,26.7l18,45.17-681.25,445.3-77.8-195.74A47.43,47.43,0,0,1,4435.59,2460.75Z"/><rect class="cls-4" x="4422.52" y="2680.38" width="14.08" height="51.17" transform="translate(3552.08 7821.94) rotate(-111.69)"/><path class="cls-1" d="M4906,3117.34c-15.56-27.5-39-49.39-62-69-12.44-10.57-25.68-21.28-40.05-30.65a185.72,185.72,0,0,0-11.71-54.36c-11.4-30.82-29.69-59-46.07-82.47-14.93-21.42-33-45.38-58.59-58.6-25.23-13-57.63-15.24-91.23-6.21-18.1,4.87-36.18,13.34-53.66,21.54-11,5.17-21.43,10.05-31.78,14.06-45.07,17.47-91.67,35.54-140,42.67-37.38,5.52-91.89,6.35-139.3-21-24.45-14.11-44.13-33.83-63.63-55.42l30.73-12.43-5.25-13L4158,2806.84l-3.58-4.05c-18.66-21.12-38-43-60.83-60.38-11.63-8.86-29.5-20.61-50.26-20.38-22.89.26-44.47,16.08-52.49,38.46-7.48,20.91-2.69,46,12.22,63.84,13.86,16.63,35.85,26.74,58.81,27.05,22.56.31,44-8.34,62.82-16l29.41-11.89c20.81,23.24,42.9,46.08,70.43,62,50.9,29.37,108.77,28.58,148.34,22.73,49.9-7.36,97.25-25.72,143-43.47,10.8-4.18,21.91-9.4,32.66-14.43,16.94-7.94,34.45-16.15,51.35-20.7,30.22-8.12,59.05-6.3,81.17,5.13,22.74,11.75,38.92,33.2,53.54,54.17,16.67,23.9,33.59,50.06,44.43,79.32a178.32,178.32,0,0,1,10,40.6c-3.72-2-7.5-4-11.37-5.75-19.41-9-49.21-18.27-80.88-11.37-29.4,6.41-54.07,27.12-62.84,52.77a72.94,72.94,0,0,0,13.21,69.59c21.35,25.12,60.52,33.29,93.12,19.41,28.82-12.27,51.83-40.92,60-74.79a134.32,134.32,0,0,0,3.52-24c10.91,7.68,21.19,16.08,31,24.41,22,18.72,44.43,39.58,58.92,65.17,15.56,27.5,19.39,57.18,10.5,81.41-1.4,3.81-3.11,7.53-4.92,11.46-2.82,6.12-5.74,12.45-7.51,19.4-3,11.72-2.18,27.64,9,37.21l9.09-10.65c-6.33-5.4-6.41-15.82-4.55-23.11,1.45-5.7,4-11.18,6.65-17,1.85-4,3.76-8.16,5.35-12.5,8.43-23,7.18-49.85-3.18-75.88A140.68,140.68,0,0,0,4906,3117.34ZM4647.26,3049c7.22-21.11,27.86-38.24,52.57-43.62,27.87-6.08,54.55,2.3,72,10.39a188,188,0,0,1,18.3,9.82,124.08,124.08,0,0,1-3.38,29.79c-7.19,29.65-27.08,54.64-51.91,65.21-26.67,11.35-59.77,4.65-77-15.6a56.36,56.36,0,0,1-9.39-15.71A58.62,58.62,0,0,1,4647.26,3049Zm-643.21-283.81c6-16.72,22.59-29,39.47-29.18,12.52-.14,25.74,5.42,41.61,17.52,21.78,16.58,40.61,37.9,58.83,58.51l.31.35-24.8,10c-17.65,7.14-37.64,15.23-57.38,15-18.93-.26-37-8.49-48.25-22a54.2,54.2,0,0,1-8.67-14.6C4000.6,2789.26,4000,2776.44,4004.05,2765.21Z"/><path class="cls-1" d="M4797.68,3440.6c42.88-9.23,73.36-23.39,95.93-44.55,28-26.28,40.57-64.59,32.05-96.65,3,2.28,6,4.49,9,6.64a546,546,0,0,0,191.43,87.11l3.21-13.63a531.91,531.91,0,0,1-186.47-84.86c-18.43-13.22-38.09-28.91-38.15-47.65l-14-.75c-1.71,15.46,4.72,25.49,10.95,35.2,3.54,5.52,7.2,11.23,9.49,18.22,10.53,32.08-6,66.39-27.11,86.16-20.63,19.35-49,32.4-89.3,41.07Z"/><ellipse class="cls-9" cx="5237.33" cy="3353.12" rx="12.76" ry="61.39" transform="translate(185.53 6979.74) rotate(-68.3)"/><path class="cls-1" d="M5286.63,3366.89c12.75,4,20.43,26.5,7.29,35.43a281.57,281.57,0,0,1-41.23,22.9l23.68,9.42c6.49,2.58,9.36,10.28,6.65,17.09l-.53,1.33c-2.71,6.81-10,10.27-16.51,7.68l-167.1-66.49,10.39-26.1,69.34,27.59c-1.61-5.29-10.07-33.31-12.62-40.64a22.24,22.24,0,0,1,1.09-17.55,21.82,21.82,0,0,1,5.55-6.41c5.19-4,12.53-5.95,17.84-2.51C5207.38,3339.6,5272.45,3362.43,5286.63,3366.89Z"/><path class="cls-10" d="M5072.6,3326.61h15.76a6.3,6.3,0,0,1,6.3,6.3V3417a0,0,0,0,1,0,0H5066.3a0,0,0,0,1,0,0v-84.1A6.3,6.3,0,0,1,5072.6,3326.61Z" transform="translate(69.32 6845.81) rotate(-68.3)"/><ellipse class="cls-9" cx="4648.26" cy="3415.44" rx="61.39" ry="12.76" transform="translate(-933.37 1960.45) rotate(-21.7)"/><path class="cls-1" d="M4599,3429.21c-12.75,4-20.43,26.5-7.29,35.43a281.15,281.15,0,0,0,41.23,22.89l-23.68,9.42c-6.49,2.59-9.36,10.28-6.65,17.1l.53,1.33c2.71,6.81,10,10.26,16.51,7.68l167.1-66.49-10.39-26.1L4707,3458.06c1.61-5.3,10.07-33.31,12.63-40.65a22.24,22.24,0,0,0-1.1-17.54,21.72,21.72,0,0,0-5.55-6.42c-5.19-4-12.53-5.94-17.84-2.5C4678.21,3401.92,4613.14,3424.74,4599,3429.21Z"/><path class="cls-10" d="M4790.93,3388.93h28.36a0,0,0,0,1,0,0V3473a6.3,6.3,0,0,1-6.3,6.3h-15.76a6.3,6.3,0,0,1-6.3-6.3v-84.1A0,0,0,0,1,4790.93,3388.93Z" transform="translate(3390.75 9168.41) rotate(-111.7)"/><path class="cls-11" d="M3030.81,2966.66a392.82,392.82,0,0,0,4.09,56.5c27.35,188.06,189.25,332.42,384.83,332.42,5.65,0,11.23-.15,16.8-.37,207-8.77,372.19-179.37,372.19-388.55,0-214.83-174.16-388.92-389-388.92S3030.81,2751.83,3030.81,2966.66Z"/><path class="cls-3" d="M3419.73,2566.59c220.63,0,400.14,179.45,400.14,400.07,0,215.05-168.14,390.63-382.89,399.7-4.17.15-8.33.3-12.49.3l11.37-11.45,11.74-11.82c197.22-14.2,350-177.59,350-376.73,0-208.29-169.48-377.77-377.84-377.77S3042,2758.37,3042,2966.66a371.13,371.13,0,0,0,2.75,45.42l-10,10-9.74,9.74c-.44-2.31-.74-4.61-1.11-7a400.89,400.89,0,0,1-4.24-58.13C3019.66,2746,3199.11,2566.59,3419.73,2566.59Z"/><path class="cls-7" d="M3025,3031.78c31.3,191.41,199.81,334.95,394.72,334.95,1.64,0,3.2,0,4.76-.07l11.37-11.45,11.74-11.82c-3.79.3-7.65.52-11.52.67-5.42.22-10.85.37-16.35.37-186.36,0-347-138.78-373.83-322.91-.45-3.12-.89-6.32-1.19-9.44l-10,10Z"/><path class="cls-12" d="M3044.71,3012.08c.3,3.12.74,6.32,1.19,9.44,26.84,184.13,187.47,322.91,373.83,322.91,5.5,0,10.93-.15,16.35-.37,3.87-.15,7.73-.37,11.52-.67l342.32-345.58-552.83-177.59Z"/><path class="cls-13" d="M3672.11,2937.3h135a.38.38,0,0,1,.38.38v54.9a5.26,5.26,0,0,1-5.26,5.26H3672.86a30.65,30.65,0,0,1-30.65-30.65v0a29.89,29.89,0,0,1,29.89-29.89Z" transform="translate(7449.7 5935.14) rotate(-180)"/><circle class="cls-13" cx="3419.75" cy="2966.66" r="233" transform="translate(-1096.13 3287.05) rotate(-45)"/><path class="cls-14" d="M3227.5,2966.66c0,106.23,86.08,192.31,192.23,192.31A192.43,192.43,0,0,0,3612,2966.66c0-106.22-86.08-192.3-192.3-192.3a192.36,192.36,0,0,0-192.23,192.3Z"/><path class="cls-15" d="M3227.5,2966.66c0,106.23,86.08,192.31,192.23,192.31A191.69,191.69,0,0,0,3569,3087.83a190.59,190.59,0,0,0,20.89-87.12c0-106.15-86.08-192.31-192.23-192.31a191.71,191.71,0,0,0-149.26,71.14A190.72,190.72,0,0,0,3227.5,2966.66Z"/><path class="cls-16" d="M2631.15,907,3108,1321.49l693.93-798.38L3325.09,108.65a68.72,68.72,0,0,0-97,6.79l-37.46,43.1-1.54,1.77-35.47,40.81-1.54,1.77-33.93,39-1.54,1.77-33.93,39-1.54,1.77-33.93,39-1.54,1.78L2624.37,810.08a68,68,0,0,0-7.87,11.11c-.41.69-.79,1.4-1.16,2.1A68.75,68.75,0,0,0,2631.15,907Z"/><path class="cls-14" d="M3723.92,521.49c-6.46,7.43-6.93,17.59-1.05,22.7s15.88,3.23,22.34-4.2,6.92-17.59,1.05-22.7S3730.37,514.06,3723.92,521.49Z"/><path class="cls-14" d="M3651.09,605.28c-6.46,7.43-6.93,17.6-1.05,22.71s15.88,3.22,22.34-4.21,6.92-17.59,1-22.7S3657.54,597.85,3651.09,605.28Z"/><path class="cls-14" d="M3582.58,686.79c-6.45,7.43-6.92,17.6-1,22.71s15.89,3.23,22.34-4.2,6.93-17.6,1.05-22.71S3589,679.36,3582.58,686.79Z"/><path class="cls-14" d="M3506.64,767.88c-6.46,7.43-6.92,17.6-1,22.71s15.88,3.22,22.34-4.21,6.93-17.59,1.05-22.7S3513.1,760.45,3506.64,767.88Z"/><path class="cls-14" d="M3436.8,848.23c-6.45,7.43-6.92,17.6-1,22.71s15.88,3.23,22.33-4.21,6.93-17.59,1-22.7S3443.26,840.8,3436.8,848.23Z"/><path class="cls-14" d="M3367,928.58c-6.45,7.43-6.92,17.6-1,22.71s15.88,3.23,22.33-4.2,6.93-17.6,1.05-22.71S3373.42,921.15,3367,928.58Z"/><path class="cls-14" d="M3297.13,1008.93c-6.46,7.43-6.93,17.6-1.05,22.71s15.88,3.23,22.34-4.2,6.92-17.6,1-22.71S3303.58,1001.5,3297.13,1008.93Z"/><ellipse class="cls-14" cx="3231.76" cy="1105.63" rx="17.83" ry="14.1" transform="translate(277.22 2819.51) rotate(-49)"/><path class="cls-14" d="M3149.74,1178.5c-6.46,7.43-6.93,17.6-1,22.71s15.88,3.23,22.34-4.2,6.93-17.6,1-22.71S3156.2,1171.07,3149.74,1178.5Z"/><path class="cls-15" d="M3731,521.41,3804.17,585a3.4,3.4,0,0,0,4.77-.34h0a3.39,3.39,0,0,0-.34-4.77l-73.18-63.61a3.39,3.39,0,0,0-4.77.34h0A3.37,3.37,0,0,0,3731,521.41Z"/><path class="cls-15" d="M3720.08,535.3l73.18,63.62a3.4,3.4,0,0,0,4.77-.34h0a3.39,3.39,0,0,0-.34-4.77l-73.18-63.61a3.39,3.39,0,0,0-4.77.34h0A3.37,3.37,0,0,0,3720.08,535.3Z"/><path class="cls-15" d="M3658.64,605l73.19,63.61a3.39,3.39,0,0,0,4.77-.33h0a3.4,3.4,0,0,0-.34-4.77l-73.18-63.61a3.39,3.39,0,0,0-4.77.33h0A3.39,3.39,0,0,0,3658.64,605Z"/><path class="cls-15" d="M3647.42,617.87l73.18,63.61a3.39,3.39,0,0,0,4.77-.33h0a3.39,3.39,0,0,0-.33-4.77l-73.19-63.61a3.37,3.37,0,0,0-4.76.34h0A3.38,3.38,0,0,0,3647.42,617.87Z"/><path class="cls-15" d="M3590.14,686.61l73.18,63.62a3.4,3.4,0,0,0,4.77-.34h0a3.39,3.39,0,0,0-.33-4.77l-73.19-63.61a3.39,3.39,0,0,0-4.77.34h0A3.37,3.37,0,0,0,3590.14,686.61Z"/><path class="cls-15" d="M3579,699.48l73.18,63.61a3.39,3.39,0,0,0,4.77-.34h0a3.38,3.38,0,0,0-.33-4.76l-73.19-63.61a3.39,3.39,0,0,0-4.77.33h0A3.39,3.39,0,0,0,3579,699.48Z"/><path class="cls-15" d="M3514.25,767.63l73.19,63.62a3.39,3.39,0,0,0,4.76-.34h0a3.39,3.39,0,0,0-.33-4.77l-73.19-63.61a3.37,3.37,0,0,0-4.76.34h0A3.38,3.38,0,0,0,3514.25,767.63Z"/><path class="cls-15" d="M3503.07,780.5l73.19,63.61a3.37,3.37,0,0,0,4.76-.34h0a3.38,3.38,0,0,0-.33-4.76L3507.5,775.4a3.38,3.38,0,0,0-4.76.33h0A3.39,3.39,0,0,0,3503.07,780.5Z"/><path class="cls-15" d="M3444.38,848l73.18,63.61a3.39,3.39,0,0,0,4.77-.33h0a3.39,3.39,0,0,0-.34-4.77l-73.18-63.61a3.39,3.39,0,0,0-4.77.33h0A3.39,3.39,0,0,0,3444.38,848Z"/><path class="cls-15" d="M3433.2,860.83l73.18,63.61a3.39,3.39,0,0,0,4.77-.33h0a3.39,3.39,0,0,0-.34-4.77l-73.18-63.61a3.39,3.39,0,0,0-4.77.34h0A3.37,3.37,0,0,0,3433.2,860.83Z"/><path class="cls-15" d="M3374.43,928.36,3447.61,992a3.39,3.39,0,0,0,4.77-.34h0a3.38,3.38,0,0,0-.33-4.76l-73.19-63.61a3.38,3.38,0,0,0-4.76.33h0A3.39,3.39,0,0,0,3374.43,928.36Z"/><path class="cls-15" d="M3363.25,941.22l73.18,63.61a3.39,3.39,0,0,0,4.77-.33h0a3.39,3.39,0,0,0-.33-4.77l-73.19-63.61a3.38,3.38,0,0,0-4.76.33h0A3.39,3.39,0,0,0,3363.25,941.22Z"/><path class="cls-15" d="M3304.66,1008.68l73.19,63.61a3.39,3.39,0,0,0,4.77-.33h0a3.39,3.39,0,0,0-.34-4.77l-73.18-63.61a3.39,3.39,0,0,0-4.77.33h0A3.39,3.39,0,0,0,3304.66,1008.68Z"/><path class="cls-15" d="M3293.48,1021.54l73.19,63.61a3.39,3.39,0,0,0,4.77-.33h0a3.39,3.39,0,0,0-.34-4.77l-73.18-63.61a3.39,3.39,0,0,0-4.77.34h0A3.38,3.38,0,0,0,3293.48,1021.54Z"/><path class="cls-15" d="M3228.66,1096.12l73.19,63.61a3.39,3.39,0,0,0,4.77-.33h0a3.4,3.4,0,0,0-.34-4.77L3233.1,1091a3.39,3.39,0,0,0-4.77.33h0A3.39,3.39,0,0,0,3228.66,1096.12Z"/><path class="cls-15" d="M3217.48,1109l73.19,63.62a3.4,3.4,0,0,0,4.77-.34h0a3.4,3.4,0,0,0-.34-4.77l-73.18-63.61a3.39,3.39,0,0,0-4.77.34h0A3.38,3.38,0,0,0,3217.48,1109Z"/><path class="cls-15" d="M3157.39,1178.32l73.18,63.61a3.39,3.39,0,0,0,4.77-.33h0a3.39,3.39,0,0,0-.33-4.77l-73.19-63.61a3.39,3.39,0,0,0-4.77.33h0A3.39,3.39,0,0,0,3157.39,1178.32Z"/><path class="cls-15" d="M3146.21,1191.18l73.18,63.61a3.39,3.39,0,0,0,4.77-.33h0a3.39,3.39,0,0,0-.33-4.77l-73.19-63.61a3.39,3.39,0,0,0-4.77.34h0A3.37,3.37,0,0,0,3146.21,1191.18Z"/><rect class="cls-14" x="3415.82" y="81.64" width="2.35" height="699.82" transform="translate(849.68 2727.41) rotate(-49)"/><rect class="cls-14" x="3452.83" y="39.06" width="2.35" height="699.81" transform="translate(894.57 2740.72) rotate(-49)"/><rect class="cls-14" x="3485.21" y="1.8" width="2.35" height="699.81" transform="translate(933.82 2752.33) rotate(-49)"/><rect class="cls-14" x="3380.35" y="122.45" width="2.35" height="699.81" transform="translate(806.7 2714.7) rotate(-49)"/><rect class="cls-14" x="3344.88" y="163.25" width="2.35" height="699.81" transform="translate(763.7 2701.97) rotate(-49)"/><rect class="cls-14" x="3309.41" y="204.06" width="2.35" height="699.81" transform="translate(720.7 2689.23) rotate(-49)"/><rect class="cls-14" x="3273.68" y="244.29" width="2.35" height="700.5" transform="translate(677.78 2676.22) rotate(-49)"/><rect class="cls-14" x="3238.22" y="285.1" width="2.35" height="700.5" transform="translate(634.78 2663.49) rotate(-49)"/><rect class="cls-14" x="3204.29" y="324.13" width="2.35" height="700.5" transform="translate(593.65 2651.31) rotate(-49)"/><rect class="cls-14" x="3167.28" y="366.71" width="2.35" height="700.5" transform="translate(548.78 2638.02) rotate(-49)"/><rect class="cls-14" x="3133.35" y="405.74" width="2.35" height="700.5" transform="translate(507.65 2625.84) rotate(-49)"/><rect class="cls-14" x="3099.43" y="444.78" width="2.35" height="700.5" transform="translate(466.52 2613.66) rotate(-49)"/><rect class="cls-14" x="3062.42" y="487.36" width="2.35" height="700.5" transform="translate(421.65 2600.38) rotate(-49)"/><rect class="cls-14" x="3023.87" y="531.71" width="2.35" height="700.5" transform="translate(374.92 2586.54) rotate(-49)"/><rect class="cls-14" x="2986.86" y="574.29" width="2.35" height="700.5" transform="translate(330.05 2573.25) rotate(-49)"/><rect class="cls-14" x="2951.39" y="615.1" width="2.35" height="700.5" transform="translate(287.05 2560.52) rotate(-49)"/><rect class="cls-14" x="2914.38" y="657.68" width="2.35" height="700.5" transform="translate(242.18 2547.23) rotate(-49)"/><path class="cls-14" d="M2615.34,823.29l526.78,457.88,1.55-1.77L2616.5,821.19C2616.09,821.88,2615.71,822.59,2615.34,823.29Z"/><rect class="cls-16" x="4534.38" y="116.48" width="642.11" height="764.66" transform="translate(935.44 3407.02) rotate(-42.44)"/><rect class="cls-16" x="1209.96" y="1095.5" width="642.11" height="764.66" transform="translate(3490.46 648.05) rotate(113.06)"/><path class="cls-17" d="M4491.94,105.69l76.87,437.86c.48,2.69-2.67,5.49-7,6.25l-41.93,7.36c-4.34.76-8.25-.79-8.72-3.49l-76.88-437.86a3.07,3.07,0,0,1,0-1.13l57.24-10.05A3,3,0,0,1,4491.94,105.69Z"/><path class="cls-18" d="M4536.9,554.17l-17,3c-4.34.76-8.25-.79-8.72-3.49l-76.88-437.86a3.07,3.07,0,0,1,0-1.13l17-3a3.07,3.07,0,0,0-.06.85,2.7,2.7,0,0,0,0,.28l76.88,437.86C4528.66,553.38,4532.57,554.93,4536.9,554.17Z"/><path class="cls-19" d="M4471.62,109.25l76.88,437.87c.47,2.69-.39,5.08-1.91,5.35l-14.78,2.6c-1.52.26-3.15-1.69-3.62-4.39l-76.88-437.86a2.7,2.7,0,0,1,0-.28c0-.27-.07-.55-.09-.83l20.19-3.54A9.43,9.43,0,0,1,4471.62,109.25Z"/><path class="cls-5" d="M4434.27,114.69s8.76-99,12-99.73,45.27,89.67,45.27,89.67Z"/><path class="cls-20" d="M4440.78,49.24s3.61-35,5.33-35c2.16,0,17,31,17,31Z"/><path class="cls-21" d="M2721.2,1624.41a58.73,58.73,0,0,1,78.32,26.89l177.08,362.29a58.73,58.73,0,0,1-26.89,78.32L2447,2337.65a58.73,58.73,0,0,1-78.32-26.89l-177.08-362.3a58.73,58.73,0,0,1,26.89-78.32Z"/><path class="cls-22" d="M2771.59,2179l210.75-150.28c-.42-5.53-5.8-15.36-8.51-20.8l-84.86-170S2731.24,1621,2730.63,1620.25L2529,1723.94l-315.34,210.85,4.12,10.16,500.87,259.45Z"/><path class="cls-16" d="M2633.39,1618.15a58.72,58.72,0,0,1,82,11.77l241.71,322.79a58.71,58.71,0,0,1-11.77,82l-447.93,335.42a58.72,58.72,0,0,1-82-11.77l-241.7-322.78a58.72,58.72,0,0,1,11.77-82Z"/><path class="cls-23" d="M2376.3,2293.37l107.81-69.83s12.62-12,24.16,2.07,50.27,99.52,50.27,99.52Z"/><path class="cls-24" d="M2370.5,2297.58l95.67-69.45s12.62-12,24.17,2.07,68.66,94.6,68.66,94.6Z"/><path class="cls-22" d="M2643.54,2138.4a8.13,8.13,0,0,0,1.6-11.37l-185.59-248.09a8.11,8.11,0,0,0-11.36-1.6h0a8.11,8.11,0,0,0-1.59,11.36l185.58,248.09a8.12,8.12,0,0,0,11.36,1.61Z"/><path class="cls-22" d="M2615.87,2046.17a8.1,8.1,0,0,0,1.6-11.36l-131.75-174.89a8.1,8.1,0,0,0-11.36-1.6h0a8.11,8.11,0,0,0-1.59,11.36l131.74,174.89a8.11,8.11,0,0,0,11.36,1.6Z"/><path class="cls-22" d="M2698.75,2098.27a8.12,8.12,0,0,0,1.6-11.36l-185.59-248.1a8.1,8.1,0,0,0-11.36-1.59h0a8.11,8.11,0,0,0-1.6,11.36l185.59,248.09a8.11,8.11,0,0,0,11.36,1.6Z"/><path class="cls-22" d="M2657.92,1978.74a8.12,8.12,0,0,0,1.59-11.37l-113.79-151.06a8.12,8.12,0,0,0-11.36-1.6h0a8.11,8.11,0,0,0-1.6,11.36l113.8,151.06a8.11,8.11,0,0,0,11.36,1.61Z"/><path class="cls-22" d="M2708.49,1986.23a8.13,8.13,0,0,0,1.6-11.37l-135.34-179.65a8.11,8.11,0,0,0-11.36-1.6h0a8.11,8.11,0,0,0-1.59,11.36l135.33,179.65a8.12,8.12,0,0,0,11.36,1.61Z"/><path class="cls-22" d="M2790.08,2031.88a8.11,8.11,0,0,0,1.6-11.36l-185.59-248.09a8.11,8.11,0,0,0-11.36-1.6h0a8.11,8.11,0,0,0-1.59,11.36l185.58,248.09a8.11,8.11,0,0,0,11.36,1.6Z"/><path class="cls-22" d="M2818.51,2011.22a8.11,8.11,0,0,0,1.59-11.36l-185.58-248.09a8.11,8.11,0,0,0-11.36-1.6h0a8.11,8.11,0,0,0-1.6,11.36l185.59,248.09a8.11,8.11,0,0,0,11.36,1.6Z"/><path class="cls-20" d="M2075.39,2127.9,2166,2563.11c.56,2.68-2.5,5.57-6.81,6.47l-41.68,8.68c-4.32.9-8.27-.53-8.83-3.21l-90.65-435.21a2.91,2.91,0,0,1,0-1.14l56.9-11.85A3,3,0,0,1,2075.39,2127.9Z"/><path class="cls-15" d="M2134.48,2574.74l-16.93,3.52c-4.32.9-8.27-.53-8.83-3.21l-90.65-435.21a2.91,2.91,0,0,1,0-1.14l16.94-3.52a3,3,0,0,0,0,.85,2.74,2.74,0,0,0,0,.28l90.65,435.21C2126.22,2574.2,2130.17,2575.63,2134.48,2574.74Z"/><path class="cls-25" d="M2055.2,2132.1l90.65,435.22c.56,2.68-.23,5.1-1.74,5.41l-14.7,3.06c-1.51.32-3.19-1.59-3.75-4.27L2035,2136.31a2.74,2.74,0,0,1,0-.28,7.72,7.72,0,0,1-.12-.82l20.07-4.18C2055,2131.37,2055.12,2131.73,2055.2,2132.1Z"/><path class="cls-26" d="M2018,2138.71s5.63-99.27,8.87-100.06,48.08,88.2,48.08,88.2Z"/><path class="cls-27" d="M2022.47,2073.09s2.5-35.1,4.23-35.18c2.15-.11,18,30.41,18,30.41Z"/><path class="cls-28" d="M2330.93,2071.4l-256.2,363.31c-1.57,2.24-5.77,2-9.37-.56l-34.8-24.54c-3.6-2.53-5.25-6.4-3.67-8.64l256.2-363.31a2.74,2.74,0,0,1,.81-.78l47.5,33.49A2.93,2.93,0,0,1,2330.93,2071.4Z"/><path class="cls-29" d="M2044.7,2419.58l-14.14-10c-3.6-2.53-5.25-6.4-3.67-8.64l256.2-363.31a2.74,2.74,0,0,1,.81-.78l14.14,10a3.59,3.59,0,0,0-.65.57l-.17.22L2041,2410.94C2039.45,2413.18,2041.1,2417,2044.7,2419.58Z"/><path class="cls-30" d="M2314.08,2059.52l-256.2,363.31c-1.58,2.23-3.88,3.31-5.14,2.42l-12.27-8.65c-1.26-.89-1-3.42.56-5.66l256.19-363.31.17-.22a8.34,8.34,0,0,1,.53-.65l16.74,11.81A10.5,10.5,0,0,1,2314.08,2059.52Z"/><path class="cls-31" d="M2283.88,2036.87s76.39-63.65,79.18-61.82-31.64,95.34-31.64,95.34Z"/><path class="cls-30" d="M2334.87,1995.32s27.36-22.13,28.6-20.92c1.54,1.5-10,33.9-10,33.9Z"/><path class="cls-25" d="M1315.48,907.68c7.81,24.75,296.89,300,572.35,534.88,285.57,243.52,1003.05,632.86,1003.05,632.86,495.26,198.1,1297.68,292.71,1297.68,292.71l508.75-10.84-9.83-862.47-1319.69,30.83c-214.86-139.86-770.89-285.13-922.25-344.44-24.74-9.69-38.73-15.07-38.73-15.07-74.84-64.14-171.09-67.92-223.82-97.3-71.69-39.94-141.42-68.41-202.09-123.66-57.75-52.59-145.51-81.95-208.24-121-92.75-57.75-156.06-115.93-192.47-132.59-12.09-5.53-18.85-8.42-18.85-8.42C1304.86,690.25,1315.48,907.68,1315.48,907.68Z"/><path class="cls-14" d="M1580.19,691.59c257.5,258.61,1181.47,1053.92,1181.47,1053.92l10.18-343.33c-24.74-9.7-383.33-251-383.33-251-96.85-51-242.16-130.87-295.85-162-104.06-60.27-276.92-158.15-351-202Z"/><path class="cls-15" d="M950.84,1950.37,1236,1900.76s713.46-172.89,991.48-204.11c0,0,673.52-84.66,907-104.83,0,0,1294.4-59.4,1483.07-73.55l110.64-535.74L4224.7,731.25s-561.06,96.58-1135.76,207.59C2632,1027.1,2166.49,1124.5,1967.4,1189.73l-519.82,172.71c-56,18.62-298.95,107.8-361.55,145.72-40.32,24.43-88.95,20.16-141,96,0,0-102.93,58.36-169,166.85,0,0-55.6-13.87-58,23.86S816.41,1950.37,950.84,1950.37Z"/><path class="cls-14" d="M653.41,385.19c0,216.61,223.12,309.48,338.16,343a581,581,0,0,1,144.17,64.09l142,88.21s10.61-207,238.78-228.17l-393.34-329-86.61-72.44c-63.3-55.49-167.34-108-247.37-81.84-37.59,12.28-73.85,34.51-99.43,73.29h0C667.58,276,653.41,322.2,653.41,385.19Z"/><path class="cls-14" d="M4908.71,2412.57s-268.43,51.57-280.33-10.53C4494.66,1704.13,4614,689.4,4614,689.4l349.11,26.77Z"/><path class="cls-20" d="M945.07,1604.2c615.85-327.33,2167.1-579.51,2167.1-579.51l-23.23-85.85C2632,1027.1,2166.49,1124.5,1967.4,1189.73l-519.82,172.71c-56,18.62-293.66,96.36-358.95,129.42C1030.09,1521.5,959,1574.85,945.07,1604.2Z"/><rect class="cls-32" x="3177.01" y="1010.73" width="1542.31" height="1077.72" rx="73.87" transform="translate(5497.75 -2398.58) rotate(90)"/><rect class="cls-33" x="3077.61" y="1269.83" width="1350.22" height="552.82" rx="27.92" transform="translate(5298.96 -2206.49) rotate(90)"/><rect class="cls-10" x="4007.17" y="1368.48" width="502.93" height="365.19" rx="19.17" transform="translate(5809.71 -2707.56) rotate(90)"/><rect class="cls-3" x="3487.57" y="912.91" width="83.76" height="51.19" rx="14.05" transform="translate(4467.96 -2590.95) rotate(90)"/><rect class="cls-3" x="3487.57" y="1006.77" width="83.76" height="51.19" rx="14.05" transform="translate(4561.82 -2497.09) rotate(90)"/><rect class="cls-3" x="3487.57" y="1100.63" width="83.76" height="51.19" rx="14.05" transform="translate(4655.68 -2403.23) rotate(90)"/><rect class="cls-3" x="3487.57" y="1194.49" width="83.76" height="51.19" rx="14.05" transform="translate(4749.54 -2309.37) rotate(90)"/><rect class="cls-3" x="3487.57" y="1288.35" width="83.76" height="51.19" rx="14.05" transform="translate(4843.4 -2215.51) rotate(90)"/><rect class="cls-3" x="3487.57" y="1382.21" width="83.76" height="51.19" rx="14.05" transform="translate(4937.25 -2121.66) rotate(90)"/><rect class="cls-3" x="3487.57" y="1476.06" width="83.76" height="51.19" rx="14.05" transform="translate(5031.11 -2027.8) rotate(90)"/><rect class="cls-3" x="3487.57" y="1569.92" width="83.76" height="51.19" rx="14.05" transform="translate(5124.97 -1933.94) rotate(90)"/><rect class="cls-3" x="3487.57" y="1663.78" width="83.76" height="51.19" rx="14.05" transform="translate(5218.83 -1840.08) rotate(90)"/><rect class="cls-3" x="3487.57" y="1757.64" width="83.76" height="51.19" rx="14.05" transform="translate(5312.69 -1746.22) rotate(90)"/><rect class="cls-3" x="3487.57" y="1851.5" width="83.76" height="51.19" rx="14.05" transform="translate(5406.54 -1652.36) rotate(90)"/><rect class="cls-3" x="3487.57" y="1945.35" width="83.76" height="51.19" rx="14.05" transform="translate(5500.4 -1558.51) rotate(90)"/><rect class="cls-3" x="3487.57" y="2039.21" width="83.76" height="51.19" rx="14.05" transform="translate(5594.26 -1464.65) rotate(90)"/><rect class="cls-3" x="3487.57" y="2133.07" width="83.76" height="51.19" rx="14.05" transform="translate(5688.12 -1370.79) rotate(90)"/><rect class="cls-3" x="3562.73" y="899.61" width="75.94" height="75.94" rx="3.14" transform="translate(4538.27 -2663.12) rotate(90)"/><rect class="cls-3" x="3650.67" y="1037.35" width="75.94" height="75.94" rx="3.14" transform="translate(4763.96 -2613.32) rotate(90)"/><rect class="cls-3" x="3738.61" y="1057.63" width="75.94" height="75.94" rx="3.14" transform="translate(4872.19 -2680.98) rotate(90)"/><rect class="cls-3" x="3826.56" y="1104.91" width="75.94" height="75.94" rx="3.14" transform="translate(5007.41 -2721.65) rotate(90)"/><rect class="cls-3" x="3919.31" y="894.77" width="75.94" height="85.62" rx="3.34" transform="translate(4894.86 -3019.71) rotate(90)"/><rect class="cls-3" x="3919.31" y="987.28" width="75.94" height="85.62" rx="3.34" transform="translate(4987.37 -2927.2) rotate(90)"/><rect class="cls-3" x="3919.31" y="1076.99" width="75.94" height="85.62" rx="3.34" transform="translate(5077.09 -2837.48) rotate(90)"/><rect class="cls-3" x="3907.77" y="1178.99" width="99.02" height="85.62" rx="3.81" transform="translate(5179.09 -2735.48) rotate(90)"/><rect class="cls-3" x="3907.77" y="1741.3" width="99.02" height="85.62" rx="3.81" transform="translate(5741.4 -2173.17) rotate(90)"/><rect class="cls-3" x="3919.82" y="1845.4" width="74.92" height="85.62" rx="3.31" transform="translate(5845.49 -2069.07) rotate(90)"/><rect class="cls-3" x="3738.39" y="1461.92" width="437.79" height="85.62" rx="8.01" transform="translate(5462.01 -2452.56) rotate(90)"/><rect class="cls-3" x="3826.56" y="1195.37" width="75.94" height="75.94" rx="3.14" transform="translate(5097.87 -2631.18) rotate(90)"/><rect class="cls-3" x="3826.56" y="1285.83" width="75.94" height="75.94" rx="3.14" transform="translate(5188.33 -2540.72) rotate(90)"/><rect class="cls-3" x="3826.56" y="1376.3" width="75.94" height="75.94" rx="3.14" transform="translate(5278.8 -2450.26) rotate(90)"/><rect class="cls-3" x="3826.56" y="1466.76" width="75.94" height="75.94" rx="3.14" transform="translate(5369.26 -2359.8) rotate(90)"/><rect class="cls-3" x="3826.56" y="1557.22" width="75.94" height="75.94" rx="3.14" transform="translate(5459.72 -2269.34) rotate(90)"/><rect class="cls-3" x="3826.56" y="1647.68" width="75.94" height="75.94" rx="3.14" transform="translate(5550.18 -2178.88) rotate(90)"/><rect class="cls-3" x="3826.56" y="1738.14" width="75.94" height="75.94" rx="3.14" transform="translate(5640.64 -2088.42) rotate(90)"/><rect class="cls-3" x="3826.56" y="1828.6" width="75.94" height="75.94" rx="3.14" transform="translate(5731.1 -1997.96) rotate(90)"/><rect class="cls-3" x="3940.67" y="1955.5" width="77.34" height="44.11" rx="12.19" transform="translate(5956.9 -2001.78) rotate(90)"/><rect class="cls-3" x="3940.67" y="2046.24" width="77.34" height="44.11" rx="12.19" transform="translate(6047.64 -1911.04) rotate(90)"/><rect class="cls-3" x="3891.22" y="2046.24" width="77.34" height="44.11" rx="12.19" transform="translate(5998.19 -1861.6) rotate(90)"/><rect class="cls-3" x="3940.67" y="2136.98" width="77.34" height="44.11" rx="12.19" transform="translate(6138.38 -1820.3) rotate(90)"/><rect class="cls-3" x="3738.61" y="1148.93" width="75.94" height="75.94" rx="3.14" transform="translate(4963.49 -2589.68) rotate(90)"/><rect class="cls-3" x="3738.61" y="1240.23" width="75.94" height="75.94" rx="3.14" transform="translate(5054.79 -2498.38) rotate(90)"/><rect class="cls-3" x="3738.61" y="1331.53" width="75.94" height="75.94" rx="3.14" transform="translate(5146.09 -2407.08) rotate(90)"/><rect class="cls-3" x="3738.61" y="1422.27" width="75.94" height="75.94" rx="3.14" transform="translate(5236.83 -2316.34) rotate(90)"/><rect class="cls-3" x="3738.61" y="1513.57" width="75.94" height="75.94" rx="3.14" transform="translate(5328.13 -2225.04) rotate(90)"/><rect class="cls-3" x="3738.61" y="1600.96" width="75.94" height="75.94" rx="3.14" transform="translate(5415.52 -2137.65) rotate(90)"/><rect class="cls-3" x="3738.61" y="1691.42" width="75.94" height="75.94" rx="3.14" transform="translate(5505.98 -2047.19) rotate(90)"/><rect class="cls-3" x="3738.61" y="1781.88" width="75.94" height="75.94" rx="3.14" transform="translate(5596.44 -1956.73) rotate(90)"/><rect class="cls-3" x="3738.61" y="1871.78" width="75.94" height="75.94" rx="3.14" transform="translate(5686.34 -1866.83) rotate(90)"/><rect class="cls-3" x="3738.61" y="1961.69" width="75.94" height="75.94" rx="3.14" transform="translate(5776.24 -1776.93) rotate(90)"/><rect class="cls-3" x="3826.56" y="1918.18" width="75.94" height="75.94" rx="3.14" transform="translate(5820.68 -1908.38) rotate(90)"/><rect class="cls-3" x="3705.02" y="2088.54" width="143.14" height="75.94" rx="4.31" transform="translate(5903.09 -1650.08) rotate(90)"/><rect class="cls-3" x="3769.37" y="2064.95" width="190.32" height="75.94" rx="4.97" transform="translate(5967.45 -1761.61) rotate(90)"/><rect class="cls-3" x="3704.27" y="933.95" width="144.63" height="75.94" rx="4.33" transform="translate(4748.5 -2804.67) rotate(90)"/><rect class="cls-3" x="3768.02" y="956.66" width="193.02" height="75.94" rx="5.01" transform="translate(4859.16 -2869.9) rotate(90)"/><rect class="cls-3" x="3650.67" y="1128.18" width="75.94" height="75.94" rx="3.14" transform="translate(4854.79 -2522.49) rotate(90)"/><rect class="cls-3" x="3650.67" y="1218.45" width="75.94" height="75.94" rx="3.14" transform="translate(4945.07 -2432.22) rotate(90)"/><rect class="cls-3" x="3650.67" y="1309.29" width="75.94" height="75.94" rx="3.14" transform="translate(5035.9 -2341.38) rotate(90)"/><rect class="cls-3" x="3650.67" y="1400.12" width="75.94" height="75.94" rx="3.14" transform="translate(5126.73 -2250.55) rotate(90)"/><rect class="cls-3" x="3650.67" y="1490.4" width="75.94" height="75.94" rx="3.14" transform="translate(5217.01 -2160.27) rotate(90)"/><rect class="cls-3" x="3650.67" y="1578.62" width="75.94" height="75.94" rx="3.14" transform="translate(5305.24 -2072.05) rotate(90)"/><rect class="cls-3" x="3650.67" y="1670.2" width="75.94" height="75.94" rx="3.14" transform="translate(5396.81 -1980.47) rotate(90)"/><rect class="cls-3" x="3650.67" y="1760.66" width="75.94" height="75.94" rx="3.14" transform="translate(5487.28 -1890.01) rotate(90)"/><rect class="cls-3" x="3650.67" y="1849.63" width="75.94" height="75.94" rx="3.14" transform="translate(5576.25 -1801.03) rotate(90)"/><rect class="cls-3" x="3650.67" y="1942.33" width="75.94" height="75.94" rx="3.14" transform="translate(5668.94 -1708.34) rotate(90)"/><rect class="cls-3" x="3650.67" y="2030.93" width="75.94" height="75.94" rx="3.14" transform="translate(5757.54 -1619.74) rotate(90)"/><rect class="cls-3" x="3650.67" y="2122.14" width="75.94" height="75.94" rx="3.14" transform="translate(5848.75 -1528.53) rotate(90)"/><rect class="cls-3" x="3562.73" y="991.74" width="75.94" height="75.94" rx="3.14" transform="translate(4630.41 -2570.98) rotate(90)"/><rect class="cls-3" x="3562.73" y="1081.09" width="75.94" height="75.94" rx="3.14" transform="translate(4719.76 -2481.64) rotate(90)"/><rect class="cls-3" x="3562.73" y="1172.67" width="75.94" height="75.94" rx="3.14" transform="translate(4811.33 -2390.06) rotate(90)"/><rect class="cls-3" x="3562.73" y="1261.96" width="75.94" height="75.94" rx="3.14" transform="translate(4900.63 -2300.76) rotate(90)"/><rect class="cls-3" x="3562.73" y="1354.05" width="75.94" height="75.94" rx="3.14" transform="translate(4992.72 -2208.67) rotate(90)"/><rect class="cls-3" x="3562.73" y="1442.56" width="75.94" height="75.94" rx="3.14" transform="translate(5081.23 -2120.17) rotate(90)"/><rect class="cls-3" x="3562.73" y="1534.51" width="75.94" height="75.94" rx="3.14" transform="translate(5173.18 -2028.22) rotate(90)"/><rect class="cls-3" x="3562.73" y="1623.85" width="75.94" height="75.94" rx="3.14" transform="translate(5262.52 -1938.87) rotate(90)"/><rect class="cls-3" x="3562.73" y="1715.62" width="75.94" height="75.94" rx="3.14" transform="translate(5354.29 -1847.11) rotate(90)"/><rect class="cls-3" x="3562.73" y="1807.2" width="75.94" height="75.94" rx="3.14" transform="translate(5445.86 -1755.53) rotate(90)"/><rect class="cls-3" x="3562.73" y="1897.84" width="75.94" height="75.94" rx="3.14" transform="translate(5536.51 -1664.88) rotate(90)"/><rect class="cls-3" x="3562.73" y="1984.95" width="75.94" height="75.94" rx="3.14" transform="translate(5623.62 -1577.77) rotate(90)"/><rect class="cls-3" x="3539.88" y="2098.26" width="121.64" height="75.94" rx="8.73" transform="translate(5736.93 -1464.46) rotate(90)"/><path class="cls-3" d="M3636.55,922.45h104.19a8.73,8.73,0,0,1,8.73,8.73v58.49a8.73,8.73,0,0,1-8.73,8.73H3636.55a8.72,8.72,0,0,1-8.72-8.72V931.18A8.73,8.73,0,0,1,3636.55,922.45Z" transform="translate(4649.07 -2728.22) rotate(90)"/><rect class="cls-34" x="2804.99" y="1531.07" width="1221.09" height="32.45" rx="7.47" transform="translate(4962.83 -1868.24) rotate(90)"/><path class="cls-32" d="M3399.31,2278V816.68c0-13.43-8.33-26-20.29-30.64L2783.86,556.43c-6.09-2.35-12,1.53-12,7.86V2527.08c0,7.3,6.84,11.79,13.87,9.11l592.15-225.94C3390.49,2305.43,3399.31,2292.13,3399.31,2278Z"/><path class="cls-34" d="M2771,2540.13l.81-1985.53s-13.56,10.59-19.76,17.36-15.79,24-15.79,24V2493.85s12.25,19.35,15.79,23.89S2771,2540.13,2771,2540.13Z"/><polygon class="cls-16" points="3334.7 2275.18 3334.7 824.62 2806.71 634.82 2806.71 2463.89 3334.7 2275.18"/><path class="cls-10" d="M2822.6,1541.3H4028.89a7.42,7.42,0,0,1,7.42,7.42v4.57a0,0,0,0,1,0,0H2815.22a0,0,0,0,1,0,0v-4.61A7.38,7.38,0,0,1,2822.6,1541.3Z" transform="translate(4973.06 -1878.47) rotate(90)"/><path class="cls-15" d="M5456.05,2646.67V389.87l-241.88,36L4899,551.41c0,3.66-62.83,105.38-118.36,292.85-50.67,171.09-95.28,413.61-80.49,718.18,0,0-20.66,316.82,160.11,894.55Z"/><path class="cls-35" d="M4578.16,2148.12l-19.77-5.12s1.7-55.29-21.48-78.19c0,0-187.5-195.12-221.23-224.57,0,0-64.54-14.76-55.62,52.45,0,0-2.9,12.18,11.24,29.63l70.17,78.21-319.63-94.6a60.15,60.15,0,0,0-31.75-.84c-13.67,3.44-29.28,12.55-35.17,35.49,0,0-3.57,12.41,5,28.2,7.4,13.58,20.32,18.1,35.12,22.55l250,85.32-285.25-79c-15.84-4.63-45.09-10.44-58.79-1.24-11.69,7.86-21.53,25.51-21.46,44,0,0,2.41,32,40.8,47l273,85.05-225.74-56.86c-18.16-5-61.9-14.65-75.12,3.59-3.54,4.89-5.6,12.11-6.94,19.1,0,0-11.34,24,21.43,45.21,5.68,3.67,22.76,10.06,29.22,12L4181.54,2276l-168.2-43.6c-17.47-5.08-38.53-5.09-49.6,9.35a36.06,36.06,0,0,0-7.38,17.2s-9,36.61,36.58,51.32l300.11,78.7,68.71,14.17a185.17,185.17,0,0,0,55.52,3.11c13-1.28,27.23-4.1,40.36-9.78,0,0,26.47-10.26,28.9-17.25l25.47,8.05Z"/><path class="cls-36" d="M4576.63,2158.26l-19.76-5.12s1.7-55.29-21.49-78.19c0,0-187.49-195.13-221.22-224.57,0,0-64.54-14.76-55.62,52.45,0,0-2.91,12.17,11.24,29.63l70.17,78.21-319.64-94.61a60.11,60.11,0,0,0-31.74-.83c-13.68,3.44-29.28,12.55-35.18,35.49,0,0-3.57,12.41,5,28.2,7.4,13.57,20.32,18.1,35.12,22.54l250,85.33-285.25-79c-15.84-4.64-45.09-10.44-58.79-1.24-11.69,7.86-21.53,25.51-21.46,44,0,0,2.41,32,40.8,47l272.95,85-225.73-56.86c-18.16-5-61.91-14.65-75.13,3.59-3.54,4.89-5.59,12.11-6.93,19.1,0,0-11.34,24,21.43,45.21,5.67,3.67,22.75,10.05,29.22,12L4180,2286.13l-168.19-43.61c-17.48-5.07-38.54-5.08-49.61,9.36a36.21,36.21,0,0,0-7.38,17.2s-8.94,36.61,36.58,51.32l300.11,78.69,68.72,14.18a185.5,185.5,0,0,0,55.52,3.11c13-1.28,27.23-4.1,40.36-9.79,0,0,26.47-10.25,28.89-17.24l25.48,8.05Z"/><rect class="cls-3" x="4526.33" y="2116.78" width="35.13" height="319.32" transform="translate(8225.27 5780.25) rotate(-163.03)"/><path class="cls-15" d="M4507.46,2435l43.38,10.92s367.39,103.7,674.15,180.39c99.6,24.9,184.51,44.49,231.17,53.34l-.11-406.91c-153.12-6.68-644.7-110.28-644.7-110.28l-203.77-51.86-22,70.39Z"/><path class="cls-3" d="M4634.61,2428.75a13.63,13.63,0,1,0,19.19-1.68A13.62,13.62,0,0,0,4634.61,2428.75Z"/><path class="cls-3" d="M4677,2441.24a13.63,13.63,0,1,0,19.2-1.68A13.62,13.62,0,0,0,4677,2441.24Z"/><circle class="cls-3" cx="4730.62" cy="2461.64" r="13.63" transform="translate(112.94 5129.12) rotate(-57.5)"/><path class="cls-37" d="M4040.41,1943.58l-15.15,51.23a8.14,8.14,0,0,1-10.27,5.45l-27.85-8.86s-21.67-8.36-16.89-37.43c0,0,4.91-24.21,28.72-28.68,0,0,9.66-1.1,26.91,5.55l9,2.61A8.15,8.15,0,0,1,4040.41,1943.58Z"/><path class="cls-37" d="M3965,2033.91l-14.49,49a7.8,7.8,0,0,1-9.84,5.22l-26.65-8.48s-20.75-8-16.17-35.82c0,0,4.7-23.17,27.49-27.45,0,0,9.25-1.05,25.75,5.31l8.61,2.5A7.78,7.78,0,0,1,3965,2033.91Z"/><path class="cls-37" d="M3956,2143.77l-10.56,42.73a6.71,6.71,0,0,1-8.25,4.87l-23.25-6.26s-18.16-6.06-15.3-30.17c0,0,3.14-20.11,22.57-24.68,0,0,7.91-1.26,22.35,3.56l7.5,1.82A6.71,6.71,0,0,1,3956,2143.77Z"/><path class="cls-37" d="M4025.36,2265.4,4015,2307.19A6.55,6.55,0,0,1,4007,2312l-22.74-6.11s-17.75-5.94-15-29.52c0,0,3.07-19.66,22.07-24.13,0,0,7.74-1.23,21.86,3.49l7.34,1.77A6.57,6.57,0,0,1,4025.36,2265.4Z"/><path class="cls-37" d="M4333.46,1887.37l-24.18,21.78c-2.07,1.86-5.59,1.12-7.8-1.63l-14.21-17.65s-10.63-14.55.8-28.65c0,0,10.07-11.31,25.75-3,0,0,6.15,3.79,14.61,15.37l4.66,5.55C4335.33,1881.85,4335.5,1885.53,4333.46,1887.37Z"/><path class="cls-35" d="M4425.87,921.17,4407.15,926s1.61,52.37-20.35,74.05c0,0-177.58,184.81-209.53,212.7,0,0-61.12,14-52.68-49.68,0,0-2.75-11.53,10.65-28.06L4201.7,1061,3899,1150.57a57,57,0,0,1-30.07.79c-12.95-3.26-27.73-11.89-33.31-33.62,0,0-3.39-11.75,4.77-26.71,7-12.85,19.24-17.14,33.26-21.35l236.8-80.81-270.17,74.77c-15,4.39-42.71,9.89-55.68,1.18-11.07-7.44-20.4-24.16-20.33-41.63,0,0,2.29-30.28,38.65-44.51l258.52-80.56L3847.6,952c-17.2,4.7-58.63,13.87-71.15-3.41-3.36-4.63-5.3-11.46-6.57-18.08,0,0-10.74-22.76,20.3-42.82,5.37-3.48,21.55-9.53,27.67-11.37l232.37-76.24-159.31,41.3c-16.55,4.81-36.49,4.82-47-8.85a34.32,34.32,0,0,1-7-16.3s-8.47-34.67,34.65-48.6l284.24-74.54,65.09-13.43a175.81,175.81,0,0,1,52.58-2.94c12.27,1.21,25.79,3.88,38.23,9.27,0,0,25.07,9.71,27.37,16.33l24.12-7.62Z"/><path class="cls-36" d="M4417.52,916.48l-18.72,4.85s1.61,52.37-20.35,74.06c0,0-177.59,184.81-209.54,212.7,0,0-61.12,14-52.67-49.68,0,0-2.75-11.53,10.64-28.06l66.46-74.08-302.74,89.6a56.92,56.92,0,0,1-30.06.8c-12.95-3.27-27.73-11.89-33.32-33.62,0,0-3.38-11.75,4.77-26.71,7-12.85,19.24-17.14,33.27-21.35l236.8-80.81L3831.88,1059c-15,4.39-42.7,9.89-55.67,1.17-11.08-7.44-20.4-24.16-20.33-41.62,0,0,2.28-30.29,38.64-44.51l258.53-80.56-213.81,53.85c-17.19,4.71-58.63,13.88-71.15-3.4-3.35-4.63-5.29-11.47-6.56-18.08,0,0-10.75-22.76,20.29-42.83,5.38-3.47,21.55-9.52,27.68-11.37l232.36-76.23-159.3,41.3c-16.55,4.81-36.5,4.82-47-8.86a34.29,34.29,0,0,1-7-16.29s-8.47-34.67,34.65-48.6l284.25-74.54L4212.56,675a175.19,175.19,0,0,1,52.58-2.94c12.28,1.21,25.8,3.88,38.23,9.26,0,0,25.07,9.72,27.37,16.34l24.13-7.63Z"/><rect class="cls-3" x="4377.23" y="648.05" width="35.13" height="319.32" transform="translate(8844.77 402.43) rotate(164.38)"/><path class="cls-15" d="M4457.32,960.07,4529,941.89l244.82-62.1v-.61q18.48-4.2,37.56-8.47c219.52-49.12,491.59-103.6,644.7-110.27l.11-423.72c-46.66,8.86-134.07,27.14-233.4,53.15-184.4,48.29-413.16,126.62-587,176.26l-278,70.52Z"/><path class="cls-3" d="M4469.62,679.43a13.63,13.63,0,1,1,19.2,1.68A13.61,13.61,0,0,1,4469.62,679.43Z"/><path class="cls-3" d="M4512.05,666.94a13.63,13.63,0,1,1,19.2,1.68A13.62,13.62,0,0,1,4512.05,666.94Z"/><path class="cls-3" d="M4555.2,655.31a13.63,13.63,0,1,1,19.2,1.68A13.62,13.62,0,0,1,4555.2,655.31Z"/><path class="cls-37" d="M3909.64,1119.81l-14.35-48.52a7.71,7.71,0,0,0-9.73-5.16l-26.37,8.39s-20.53,7.92-16,35.45c0,0,4.65,22.93,27.2,27.17,0,0,9.15,1,25.48-5.26l8.52-2.47A7.72,7.72,0,0,0,3909.64,1119.81Z"/><path class="cls-37" d="M3838.19,1034.25l-13.73-46.43a7.38,7.38,0,0,0-9.32-4.94l-25.24,8s-19.65,7.57-15.31,33.93c0,0,4.45,21.94,26,26,0,0,8.75,1,24.38-5l8.16-2.36A7.39,7.39,0,0,0,3838.19,1034.25Z"/><path class="cls-37" d="M3829.7,930.21l-10-40.47a6.36,6.36,0,0,0-7.82-4.62l-22,5.93s-17.19,5.74-14.49,28.58c0,0,3,19,21.38,23.37,0,0,7.49,1.2,21.17-3.38l7.1-1.71A6.36,6.36,0,0,0,3829.7,930.21Z"/><path class="cls-37" d="M3895.38,815l-9.78-39.58a6.22,6.22,0,0,0-7.65-4.51l-21.53,5.79s-16.82,5.63-14.17,28c0,0,2.91,18.62,20.91,22.86,0,0,7.32,1.17,20.7-3.31l6.95-1.68A6.21,6.21,0,0,0,3895.38,815Z"/><path class="cls-37" d="M4187.2,1173.05l-22.9-20.63c-2-1.76-5.29-1.06-7.39,1.55l-13.46,16.71s-10.06,13.79.75,27.14c0,0,9.54,10.72,24.4,2.81,0,0,5.82-3.58,13.83-14.55l4.42-5.27C4189,1178.28,4189.13,1174.8,4187.2,1173.05Z"/><path class="cls-14" d="M4457.32,960.07c14.81-5.17,39.52-11.32,71.65-18.18l244.82-62.1v-.61q18.48-4.2,37.56-8.47c219.52-49.12,491.59-103.6,644.7-110.27v-139L4721.11,803s-72,20.44-164.09,34.39c-91.69,13.9-157.23-64.13-157.23-64.13Z"/><path class="cls-14" d="M4562,2256.18s41-29.2,99.49-36.3,128,8.67,128,8.67l666.59,155.61V2272.69c-153.12-6.68-644.7-110.28-644.7-110.28l-203.77-51.86Z"/><path class="cls-38" d="M1580.19,691.59,1527.28,640a69.34,69.34,0,0,0-79.55-12.38c-55.28,27.75-146.3,84.85-192.56,176.85a72.69,72.69,0,0,0,24.3,92.84l51.86,35S1369.76,783.47,1580.19,691.59Z"/><path class="cls-14" d="M.4,1685.1c1.8,26.59,9.61,51.27,20.68,73.56.33.68.65,1.33,1,2,38.1,75.07,148.78,111.52,232.79,117l34.82,3.1,8.89.79,579.51,51.64C731.72,1756.84,870.55,1603,870.55,1603l-162.81-38.07a581,581,0,0,1-147.26-56.62c-105-57.67-328.46-149.77-481.63,3.39q-5.52,5.54-10.6,11c-29.24,31.55-47.63,62.11-57.85,91.2A176.58,176.58,0,0,0,.4,1685.1Z"/><path class="cls-38" d="M950.84,1950.37l-73.92-.89a69.36,69.36,0,0,1-65-47.5c-19.47-58.71-43.45-163.45-11.11-261.21a72.7,72.7,0,0,1,82.84-48.47L946,1602.36S869.86,1734.34,950.84,1950.37Z"/><path class="cls-38" d="M927.81,594s33.8-46.88,74.15-91.29c28.12-31,83.78-82.54,83.78-82.54,5.27-5.8,6.26-13.55,2.2-17.24l-3.69-3.35c-4.06-3.68-11-1.17-17,3.84,0,0-36.82,31.05-83.68,82.63-50.18,55.24-74.25,91.2-74.25,91.2-5.33,8.12-6.26,13.55-2.2,17.23l3.69,3.35C914.92,601.53,922.54,599.8,927.81,594Z"/><path class="cls-38" d="M880.57,552.52s33.8-46.88,74.15-91.29c28.12-31,83.79-82.54,83.79-82.54,5.26-5.8,6.25-13.56,2.19-17.24L1037,358.1c-4.06-3.69-11-1.18-16.95,3.83,0,0-36.82,31.06-83.68,82.64-50.19,55.23-74.26,91.19-74.26,91.19-5.32,8.12-6.25,13.55-2.2,17.24l3.69,3.35C867.68,560,875.31,558.31,880.57,552.52Z"/><path class="cls-38" d="M831.67,513.06s33.8-46.88,74.15-91.29c28.12-30.95,83.78-82.54,83.78-82.54,5.27-5.79,6.26-13.55,2.2-17.24l-3.69-3.35c-4.05-3.68-11-1.17-16.94,3.84,0,0-36.82,31-83.69,82.63-50.18,55.24-74.25,91.2-74.25,91.2-5.32,8.12-6.25,13.55-2.2,17.23l3.69,3.35C818.78,520.58,826.4,518.85,831.67,513.06Z"/><path class="cls-38" d="M372.79,1803.59s.32-57.8,7.4-117.38c4.94-41.52,20.32-115.84,20.32-115.84.93-7.78-2.77-14.67-8.21-15.31l-4.95-.59c-5.44-.65-9.64,5.42-11.58,13,0,0-12,46.66-20.18,115.86-8.81,74.11-7.54,117.36-7.54,117.36.38,9.7,2.77,14.66,8.21,15.31l4.95.59C366.65,1817.19,371.86,1811.36,372.79,1803.59Z"/><path class="cls-38" d="M310.24,1797.21s.32-57.79,7.4-117.37C322.58,1638.31,338,1564,338,1564c.93-7.77-2.77-14.66-8.21-15.31l-4.95-.59c-5.44-.64-9.63,5.43-11.58,13,0,0-12,46.66-20.18,115.86-8.81,74.11-7.54,117.36-7.54,117.36.38,9.71,2.77,14.67,8.22,15.31l4.94.59C304.11,1810.82,309.32,1805,310.24,1797.21Z"/><path class="cls-38" d="M247.52,1793.47s.32-57.8,7.4-117.38c4.93-41.52,20.32-115.84,20.32-115.84.93-7.78-2.77-14.67-8.21-15.32l-4.95-.58c-5.45-.65-9.64,5.42-11.58,13,0,0-12,46.66-20.18,115.86-8.81,74.11-7.54,117.37-7.54,117.37.38,9.7,2.77,14.66,8.21,15.31l4.95.59C241.38,1807.07,246.59,1801.24,247.52,1793.47Z"/><path class="cls-39" d="M689.82,242.31h0c137.16-64.86,433.41,81,433.41,81l-86.61-72.44c-63.3-55.49-167.34-108-247.37-81.84C751.66,181.3,715.4,203.53,689.82,242.31Z"/><path class="cls-39" d="M298.55,1881.55l-8.89-.79C292.58,1881.1,295.55,1881.36,298.55,1881.55Z"/><path class="cls-39" d="M.4,1685.1c2.51,33.83,13.41,58.44,20.68,73.56.33.68.65,1.33,1,2,38.1,75.07,148.78,111.52,232.79,117l34.82,3.1C99.77,1859,71.2,1529.63,68.25,1522.72c-29.24,31.55-47.63,62.11-57.85,91.2A176.58,176.58,0,0,0,.4,1685.1Z"/></g></g></svg>