<svg width="44" height="46" viewBox="0 0 44 46" fill="none" xmlns="http://www.w3.org/2000/svg">
<path d="M0 40.0057C0 43.2766 2.52638 45.9276 5.64283 45.9276H38.1202C41.237 45.9276 43.7631 43.2763 43.7631 40.0057V5.92193C43.7631 2.65098 41.2367 0 38.1202 0H5.64283C2.52604 0 0 2.65134 0 5.92193V40.0057Z" fill="#563D7C"/>
<path d="M18.1474 20.3153V13.8113H23.6027C24.1222 13.8113 24.6232 13.8567 25.1057 13.9476C25.5881 14.0384 26.0149 14.2007 26.386 14.4344C26.7571 14.6681 27.054 14.9926 27.2767 15.4081C27.4993 15.8235 27.6107 16.3557 27.6107 17.0049C27.6107 18.1732 27.2767 19.0171 26.6087 19.5364C25.9407 20.0557 25.0871 20.3153 24.048 20.3153H18.1474ZM12.321 9.05981V36.8675H25.1613C26.3489 36.8675 27.5055 36.7117 28.6312 36.4001C29.7569 36.0885 30.7589 35.6082 31.6372 34.9591C32.5155 34.31 33.2144 33.4726 33.734 32.4471C34.2535 31.4215 34.5133 30.2077 34.5133 28.8056C34.5133 27.066 34.1113 25.5795 33.3072 24.3462C32.5031 23.1129 31.2846 22.2496 29.6518 21.7563C30.8393 21.1591 31.7361 20.3932 32.3423 19.4585C32.9484 18.5238 33.2515 17.3554 33.2515 15.9533C33.2515 14.6551 33.0474 13.5646 32.6392 12.6818C32.231 11.799 31.6557 11.0915 30.9135 10.5592C30.1713 10.027 29.2807 9.64401 28.2415 9.41033C27.2024 9.17665 26.052 9.05981 24.7902 9.05981H12.321ZM18.1474 32.116V24.4825H24.4933C25.7551 24.4825 26.7695 24.7876 27.5364 25.3978C28.3034 26.0079 28.6869 27.027 28.6869 28.4551C28.6869 29.1821 28.5694 29.7792 28.3343 30.2466C28.0993 30.7139 27.7838 31.0839 27.388 31.3566C26.9921 31.6292 26.5344 31.8239 26.0149 31.9408C25.4953 32.0576 24.9511 32.116 24.382 32.116H18.1474Z" fill="white"/>
</svg>
