<svg width="32" height="46" viewBox="0 0 32 46" fill="none" xmlns="http://www.w3.org/2000/svg">
<path d="M15.4833 45.9275L2.8216 42.2386L0 9.02588H31.0046L28.18 42.2334L15.4833 45.9275Z" fill="#264DE4"/>
<path d="M25.7618 40.1186L28.1756 11.7412H15.5023V43.1036L25.7618 40.1186Z" fill="#2965F1"/>
<path d="M6.46844 24.0596L6.81633 28.133H15.5023V24.0596H6.46844Z" fill="#EBEBEB"/>
<path d="M5.76941 15.8145L6.12225 19.888H15.5022V15.8145H5.76941Z" fill="#EBEBEB"/>
<path d="M15.5023 34.6389L15.4853 34.6436L11.1625 33.4186L10.8862 30.1699H6.98981L7.5336 36.5657L15.4845 38.8821L15.5023 38.8769V34.6389Z" fill="#EBEBEB"/>
<path d="M7.29669 0H11.9978V2.06312H9.2626V4.12624H11.9978V6.18936H7.29669V0Z" fill="#141414"/>
<path d="M12.9382 0H17.6393V1.79402H14.9041V2.15283H17.6393V6.27908H12.9382V4.39536H15.6734V4.03655H12.9382V0Z" fill="#141414"/>
<path d="M18.5793 0H23.2804V1.79402H20.5453V2.15283H23.2804V6.27908H18.5793V4.39536H21.3145V4.03655H18.5793V0Z" fill="#141414"/>
<path d="M24.5113 24.0592L25.212 15.8145H15.489V19.8879H20.9583L20.6051 24.0592H15.489V28.1326H20.2685L19.818 33.4155L15.489 34.6417V38.8796L23.4461 36.5652L23.5045 35.877L24.4166 25.153L24.5113 24.0592Z" fill="#F7F7FF"/>
</svg>
