<svg width="21" height="21" viewBox="0 0 21 21" fill="none" xmlns="http://www.w3.org/2000/svg">
<path d="M19.5057 20.8808C20.1349 20.8808 20.6452 20.3705 20.6452 19.7411V1.36978C20.6452 0.740258 20.1349 0.230042 19.5057 0.230042H1.13944C0.51 0.230042 0 0.740258 0 1.36978V19.7411C0 20.3705 0.51 20.8808 1.13944 20.8808H19.5057Z" fill="#232323"/>
<path d="M14.2447 20.88V12.8829H16.9283L17.3301 9.76638H14.2447V7.77649C14.2447 6.87415 14.4953 6.25923 15.7889 6.25923L17.4388 6.2585V3.47106C17.1533 3.43307 16.174 3.34821 15.0346 3.34821C12.6558 3.34821 11.0272 4.80061 11.0272 7.46794V9.76638H8.33673V12.8829H11.0272V20.88H14.2447Z" fill="#EEEEEE"/>
</svg>
