<svg width="31" height="47" viewBox="0 0 31 47" fill="none" xmlns="http://www.w3.org/2000/svg">
<path d="M7.6968 46.5627C11.9203 46.5627 15.348 43.1134 15.348 38.8634V31.1641H7.6968C3.47334 31.1641 0.0455933 34.6134 0.0455933 38.8634C0.0455933 43.1134 3.47334 46.5627 7.6968 46.5627Z" fill="#0ACF83"/>
<path d="M0.0455933 23.465C0.0455933 19.2149 3.47334 15.7656 7.6968 15.7656H15.348V31.1643H7.6968C3.47334 31.1643 0.0455933 27.715 0.0455933 23.465Z" fill="#A259FF"/>
<path d="M0.0457153 8.06603C0.0457153 3.816 3.47346 0.366699 7.69692 0.366699H15.3481V15.7654H7.69692C3.47346 15.7654 0.0457153 12.3161 0.0457153 8.06603Z" fill="#F24E1E"/>
<path d="M15.348 0.366699H22.9992C27.2227 0.366699 30.6504 3.816 30.6504 8.06603C30.6504 12.3161 27.2227 15.7654 22.9992 15.7654H15.348V0.366699Z" fill="#FF7262"/>
<path d="M30.6504 23.465C30.6504 27.715 27.2227 31.1643 22.9992 31.1643C18.7758 31.1643 15.348 27.715 15.348 23.465C15.348 19.2149 18.7758 15.7656 22.9992 15.7656C27.2227 15.7656 30.6504 19.2149 30.6504 23.465Z" fill="#1ABCFE"/>
</svg>
