<svg width="43" height="46" viewBox="0 0 43 46" fill="none" xmlns="http://www.w3.org/2000/svg">
<path d="M42.1658 20.7751L23.4906 1.1777C22.4159 0.0488407 20.6715 0.0488407 19.5954 1.1777L15.7175 5.24739L20.6368 10.41C21.78 10.0046 23.0908 10.2765 24.0022 11.233C24.9178 12.1954 25.175 13.5828 24.7793 14.7865L29.5203 19.762C30.6673 19.3473 31.9907 19.6157 32.9068 20.5786C34.1871 21.9217 34.1871 24.0986 32.9068 25.4427C31.6261 26.7868 29.5517 26.7868 28.2705 25.4427C27.3075 24.431 27.0696 22.9466 27.5572 21.7015L23.1358 17.0615L23.1354 29.272C23.4474 29.4346 23.7422 29.6508 24.0022 29.9226C25.2824 31.2657 25.2824 33.4427 24.0022 34.7878C22.7214 36.1314 20.6462 36.1314 19.3673 34.7878C18.087 33.4427 18.087 31.2657 19.3673 29.9226C19.6836 29.5912 20.0497 29.3405 20.4401 29.172V16.8477C20.0497 16.6803 19.6841 16.431 19.3673 16.0971C18.3972 15.0806 18.164 13.5867 18.661 12.3367L13.8121 7.24702L1.00704 20.6844C-0.0690793 21.8143 -0.0690793 23.645 1.00704 24.7738L19.6822 44.3717C20.7574 45.5006 22.5013 45.5006 23.5779 44.3717L42.1658 24.865C43.2414 23.7356 43.2414 21.9039 42.1658 20.7751Z" fill="#DE4C36"/>
</svg>
