<svg width="21" height="21" viewBox="0 0 21 21" fill="none" xmlns="http://www.w3.org/2000/svg">
<path d="M10.3227 0.230042C4.62236 0.230042 0 4.85278 0 10.5555C0 15.1175 2.95776 18.9879 7.05927 20.3532C7.57516 20.4488 7.76456 20.1292 7.76456 19.8565C7.76456 19.6103 7.75499 18.7969 7.75054 17.9341C4.87877 18.5587 4.27279 16.7159 4.27279 16.7159C3.80322 15.5224 3.12665 15.205 3.12665 15.205C2.19007 14.5642 3.19724 14.5774 3.19724 14.5774C4.23382 14.6502 4.77962 15.6414 4.77962 15.6414C5.7003 17.2199 7.19448 16.7636 7.78354 16.4997C7.87618 15.8324 8.1437 15.3769 8.43892 15.119C6.14611 14.8579 3.73587 13.9726 3.73587 10.0162C3.73587 8.88888 4.13912 7.96778 4.79945 7.24469C4.69228 6.98462 4.33894 5.93443 4.89945 4.51218C4.89945 4.51218 5.76628 4.23467 7.73892 5.57058C8.56233 5.3418 9.4454 5.22707 10.3227 5.22313C11.1999 5.22707 12.0837 5.3418 12.9086 5.57058C14.8789 4.23467 15.7445 4.51218 15.7445 4.51218C16.3064 5.93443 15.9529 6.98462 15.8457 7.24469C16.5076 7.96778 16.9081 8.88888 16.9081 10.0162C16.9081 13.982 14.4932 14.8552 12.1946 15.1108C12.5649 15.4313 12.8948 16.0596 12.8948 17.023C12.8948 18.4045 12.8828 19.5164 12.8828 19.8565C12.8828 20.1313 13.0686 20.4533 13.5919 20.3519C17.6912 18.985 20.6452 15.116 20.6452 10.5555C20.6452 4.85278 16.0235 0.230042 10.3227 0.230042ZM3.86617 14.9388C3.84344 14.9901 3.76276 15.0055 3.68925 14.9703C3.61438 14.9366 3.57233 14.8667 3.5966 14.8152C3.61882 14.7624 3.69968 14.7477 3.77438 14.7831C3.84942 14.8167 3.89216 14.8874 3.86617 14.9388ZM4.37393 15.392C4.3247 15.4377 4.22846 15.4165 4.16317 15.3443C4.09564 15.2723 4.083 15.1761 4.13291 15.1297C4.18368 15.0841 4.27701 15.1054 4.3447 15.1774C4.41222 15.2503 4.42539 15.3458 4.37393 15.392ZM4.72228 15.9719C4.65903 16.0158 4.55561 15.9746 4.49168 15.8828C4.42843 15.7909 4.42843 15.6808 4.49305 15.6367C4.55715 15.5926 4.65903 15.6323 4.72381 15.7234C4.78689 15.8168 4.78689 15.9269 4.72228 15.9719ZM5.3114 16.6434C5.25482 16.7058 5.13431 16.689 5.0461 16.6039C4.95585 16.5206 4.93072 16.4025 4.98747 16.3401C5.04473 16.2775 5.16593 16.2951 5.25482 16.3796C5.34439 16.4627 5.37174 16.5817 5.3114 16.6434ZM6.07278 16.8701C6.04782 16.951 5.93176 16.9877 5.81484 16.9534C5.69808 16.918 5.62167 16.8232 5.64526 16.7415C5.66954 16.6601 5.78612 16.6218 5.90389 16.6586C6.02047 16.6938 6.09706 16.7878 6.07278 16.8701ZM6.93927 16.9663C6.94217 17.0514 6.84303 17.122 6.7203 17.1236C6.59688 17.1263 6.49705 17.0574 6.49568 16.9736C6.49568 16.8876 6.5926 16.8177 6.71602 16.8156C6.83876 16.8132 6.93927 16.8816 6.93927 16.9663ZM7.79049 16.9336C7.80519 17.0167 7.7199 17.102 7.59802 17.1248C7.47819 17.1467 7.36725 17.0954 7.35204 17.0129C7.33716 16.9278 7.424 16.8425 7.54366 16.8204C7.66571 16.7992 7.77494 16.8491 7.79049 16.9336Z" fill="#232323"/>
</svg>
