<svg width="32" height="46" viewBox="0 0 32 46" fill="none" xmlns="http://www.w3.org/2000/svg">
<path d="M31.0046 9.02612L28.18 42.2338L15.4833 45.9278L2.82161 42.239L0 9.02612H31.0046Z" fill="#E44D26"/>
<path d="M15.5023 43.1042L25.7618 40.1191L28.1757 11.7417H15.5023V43.1042Z" fill="#F16529"/>
<path d="M10.0113 19.8887H15.5022V15.8152H5.76941L5.86232 16.908L6.8163 28.1333H15.5022V24.0599H10.3661L10.0113 19.8887Z" fill="#EBEBEB"/>
<path d="M10.8862 30.1702H6.98981L7.5336 36.566L15.4845 38.8823L15.5023 38.8771V34.6391L15.4853 34.6439L11.1625 33.4189L10.8862 30.1702Z" fill="#EBEBEB"/>
<path d="M2.88477 0H4.85727V2.04522H6.66164V0H8.63423V6.19342H6.66173V4.1195H4.85735V6.19342H2.88485V0H2.88477Z" fill="#141414"/>
<path d="M11.228 2.05383H9.49152V0H14.938V2.05383H13.2007V6.19342H11.2281V2.05383H11.228Z" fill="#141414"/>
<path d="M15.8024 0H17.8592L19.1244 2.17618L20.3883 0H22.4459V6.19342H20.4815V3.12362L19.1244 5.32573H19.0905L17.7324 3.12362V6.19342H15.8024V0Z" fill="#141414"/>
<path d="M23.4275 0H25.4006V4.14623H28.1745V6.19342H23.4275V0Z" fill="#141414"/>
<path d="M15.4888 28.1329H20.2684L19.8179 33.4158L15.4888 34.6421V38.8799L23.446 36.5655L23.5044 35.8773L24.4165 25.1534L24.5112 24.0596H15.4888V28.1329Z" fill="#F7F7FF"/>
<path d="M15.4888 19.8788V19.8887H24.8644L24.9423 18.9731L25.1191 16.908L25.2119 15.8152H15.4888V19.8788Z" fill="#F7F7FF"/>
</svg>
