<svg width="48" height="47" viewBox="0 0 48 47" fill="none" xmlns="http://www.w3.org/2000/svg">
<path d="M8.64084 0.168701H39.3732C44.0326 0.168701 47.7998 3.91965 47.7998 8.55898V37.9743C47.7998 42.6137 44.0326 46.3646 39.3732 46.3646H8.64084C3.98142 46.3646 0.214233 42.6137 0.214233 37.9743V8.55898C0.214233 3.91965 3.98142 0.168701 8.64084 0.168701Z" fill="#49021F"/>
<path d="M17.5036 12.2506V32.5057C17.5036 32.7229 17.4045 32.8216 17.2261 32.8216H13.3399C13.1615 32.8216 13.0822 32.7229 13.0822 32.5057V12.2506C13.0822 12.0729 13.1813 11.994 13.3597 11.994H17.2261C17.345 11.9742 17.464 12.0532 17.4838 12.1914C17.5036 12.2111 17.5036 12.2309 17.5036 12.2506Z" fill="#FF3366"/>
<path d="M28.9242 33.1374C27.457 33.1571 25.9898 32.861 24.6613 32.249C23.4122 31.6765 22.3812 30.7288 21.6674 29.5641C20.9338 28.3598 20.5769 26.8594 20.5769 25.0629C20.5571 23.602 20.9338 22.1609 21.6674 20.8974C22.4209 19.6142 23.5114 18.5481 24.82 17.8374C26.2079 17.0675 27.8734 16.6924 29.8363 16.6924C29.9354 16.6924 30.0742 16.6924 30.2526 16.7121C30.4311 16.7319 30.6294 16.7319 30.8673 16.7516V10.5132C30.8673 10.375 30.9268 10.296 31.0656 10.296H35.0905C35.1896 10.2763 35.2689 10.3553 35.2888 10.4342V29.268C35.2888 29.6233 35.3086 30.0181 35.3284 30.4525C35.3681 30.867 35.3879 31.2619 35.4077 31.5975C35.4077 31.7357 35.3482 31.8541 35.2095 31.9134C34.1784 32.3477 33.0879 32.6636 31.9776 32.861C30.9862 33.0386 29.9552 33.1374 28.9242 33.1374ZM30.8673 29.189V20.5026C30.6888 20.4631 30.5104 20.4236 30.3319 20.4039C30.1138 20.3841 29.8957 20.3644 29.6776 20.3644C28.9044 20.3644 28.1311 20.5223 27.4372 20.8777C26.763 21.2133 26.188 21.7068 25.7518 22.3386C25.3156 22.9703 25.0975 23.8192 25.0975 24.8458C25.0777 25.5367 25.1967 26.2277 25.4346 26.8792C25.6329 27.4122 25.9303 27.886 26.3268 28.2809C26.7035 28.6362 27.1596 28.9126 27.6751 29.0705C28.2104 29.2482 28.7656 29.3272 29.3208 29.3272C29.6182 29.3272 29.8957 29.3074 30.1535 29.2877C30.4113 29.3074 30.6492 29.268 30.8673 29.189Z" fill="#FF3366"/>
</svg>
