<svg width="21" height="21" viewBox="0 0 21 21" fill="none" xmlns="http://www.w3.org/2000/svg">
<path d="M10.3226 2.09049C13.0788 2.09049 13.4053 2.10098 14.4938 2.15066C15.5002 2.1966 16.0468 2.36481 16.4106 2.50617C16.8923 2.69348 17.2362 2.91727 17.5975 3.27856C17.9587 3.63986 18.1824 3.98385 18.3696 4.46577C18.511 4.82965 18.6791 5.37636 18.7251 6.38303C18.7747 7.47183 18.7852 7.79837 18.7852 10.5553C18.7852 13.3123 18.7747 13.6389 18.7251 14.7276C18.6791 15.7343 18.511 16.2811 18.3696 16.6449C18.1824 17.1268 17.9587 17.4708 17.5975 17.8321C17.2362 18.1934 16.8923 18.4172 16.4106 18.6045C16.0468 18.7459 15.5002 18.9141 14.4938 18.96C13.4054 19.0097 13.079 19.0202 10.3226 19.0202C7.56614 19.0202 7.23969 19.0097 6.15138 18.96C5.14493 18.9141 4.59836 18.7459 4.23462 18.6045C3.75279 18.4172 3.40888 18.1934 3.04768 17.8321C2.68648 17.4708 2.46275 17.1268 2.27554 16.6449C2.13417 16.2811 1.96601 15.7343 1.92007 14.7277C1.87041 13.6389 1.85992 13.3123 1.85992 10.5553C1.85992 7.79837 1.87041 7.47183 1.92007 6.38307C1.96601 5.37636 2.13417 4.82965 2.27554 4.46577C2.46275 3.98385 2.68648 3.63986 3.04768 3.27856C3.40888 2.91727 3.75279 2.69348 4.23462 2.50617C4.59836 2.36481 5.14493 2.1966 6.15133 2.15066C7.23985 2.10098 7.5663 2.09049 10.3226 2.09049ZM10.3226 0.230042C7.5191 0.230042 7.16761 0.241928 6.0666 0.292177C4.96784 0.342344 4.21749 0.516864 3.56086 0.772126C2.88206 1.036 2.30639 1.38905 1.73253 1.96306C1.15867 2.53708 0.805703 3.11289 0.541902 3.79187C0.286706 4.44868 0.112232 5.19922 0.062078 6.29827C0.0118419 7.39953 0 7.75115 0 10.5553C0 13.3595 0.0118419 13.7112 0.062078 14.8124C0.112232 15.9115 0.286706 16.662 0.541902 17.3188C0.805703 17.9978 1.15867 18.5736 1.73253 19.1476C2.30639 19.7216 2.88206 20.0747 3.56086 20.3386C4.21749 20.5938 4.96784 20.7684 6.0666 20.8185C7.16761 20.8688 7.5191 20.8806 10.3226 20.8806C13.126 20.8806 13.4776 20.8688 14.5785 20.8185C15.6773 20.7684 16.4276 20.5938 17.0843 20.3386C17.7631 20.0747 18.3387 19.7216 18.9126 19.1476C19.4865 18.5736 19.8394 17.9978 20.1032 17.3188C20.3584 16.662 20.5329 15.9115 20.5831 14.8124C20.6333 13.7112 20.6452 13.3595 20.6452 10.5553C20.6452 7.75115 20.6333 7.39953 20.5831 6.29827C20.5329 5.19922 20.3584 4.44868 20.1032 3.79187C19.8394 3.11289 19.4865 2.53708 18.9126 1.96306C18.3387 1.38905 17.7631 1.036 17.0843 0.772126C16.4276 0.516864 15.6773 0.342344 14.5785 0.292177C13.4776 0.241928 13.126 0.230042 10.3226 0.230042ZM10.3226 5.25316C7.39503 5.25316 5.02176 7.62704 5.02176 10.5553C5.02176 13.4837 7.39503 15.8575 10.3226 15.8575C13.2501 15.8575 15.6234 13.4837 15.6234 10.5553C15.6234 7.62704 13.2501 5.25316 10.3226 5.25316ZM10.3226 13.9971C8.42224 13.9971 6.88168 12.4562 6.88168 10.5553C6.88168 8.65453 8.42224 7.11357 10.3226 7.11357C12.2229 7.11357 13.7634 8.65453 13.7634 10.5553C13.7634 12.4562 12.2229 13.9971 10.3226 13.9971ZM17.0715 5.04368C17.0715 5.72798 16.5169 6.28273 15.8328 6.28273C15.1487 6.28273 14.5941 5.72798 14.5941 5.04368C14.5941 4.35937 15.1487 3.80466 15.8328 3.80466C16.5169 3.80466 17.0715 4.35937 17.0715 5.04368Z" fill="#232323"/>
</svg>
