<svg width="44" height="47" viewBox="0 0 44 47" fill="none" xmlns="http://www.w3.org/2000/svg">
<path d="M0 0.074707H43.7634V46.0023H0V0.074707Z" fill="#F7DF1E"/>
<path d="M11.5069 38.4552L14.856 36.3282C15.5021 37.5304 16.0898 38.5476 17.4996 38.5476C18.851 38.5476 19.703 37.9928 19.703 35.8349V21.1599H23.8157V35.8959C23.8157 40.3662 21.3188 42.401 17.6759 42.401C14.386 42.401 12.4762 40.6128 11.5068 38.4548" fill="black"/>
<path d="M26.0496 37.9925L29.3982 35.9578C30.2797 37.4686 31.4254 38.5783 33.4523 38.5783C35.1564 38.5783 36.243 37.6842 36.243 36.451C36.243 34.9712 35.1268 34.447 33.2466 33.5841L32.2187 33.1213C29.2515 31.7959 27.2832 30.1311 27.2832 26.6164C27.2832 23.3793 29.6333 20.9128 33.3055 20.9128C35.9201 20.9128 37.8002 21.8687 39.1513 24.3659L35.9492 26.5239C35.2442 25.1983 34.4806 24.6743 33.3056 24.6743C32.1011 24.6743 31.3373 25.4758 31.3373 26.5239C31.3373 27.8187 32.1011 28.343 33.8635 29.1446L34.8916 29.607C38.3875 31.1794 40.3558 32.7824 40.3558 36.3893C40.3558 40.2741 37.4475 42.4012 33.5405 42.4012C29.7216 42.4012 27.2539 40.4898 26.0496 37.9925" fill="black"/>
</svg>
