<svg width="21" height="21" viewBox="0 0 21 21" fill="none" xmlns="http://www.w3.org/2000/svg">
<path d="M17.5907 17.8256H14.5317V13.0338C14.5317 11.8911 14.5113 10.4202 12.9407 10.4202C11.3475 10.4202 11.1037 11.6652 11.1037 12.9506V17.8253H8.04477V7.97137H10.9814V9.31802H11.0225C11.6213 8.29392 12.7347 7.68226 13.9199 7.72627C17.0203 7.72627 17.5919 9.76616 17.5919 12.4199L17.5907 17.8256ZM4.59323 6.62441C3.61284 6.62458 2.81793 5.82974 2.81776 4.84907C2.81758 3.86839 3.6122 3.07326 4.5926 3.07309C5.57299 3.07291 6.3679 3.86776 6.36807 4.84843C6.36816 5.31936 6.18121 5.77104 5.84837 6.1041C5.51552 6.43716 5.06403 6.62432 4.59323 6.62441ZM6.12272 17.8256H3.06056V7.97137H6.12272V17.8256ZM19.1157 0.231581H1.52343C0.691984 0.222196 0.0101473 0.888391 0 1.72006V19.3903C0.00979993 20.2224 0.691581 20.8892 1.52343 20.8805H19.1157C19.9492 20.8908 20.6336 20.224 20.6452 19.3903V1.71879C20.6333 0.885473 19.9488 0.219316 19.1157 0.230172" fill="#232323"/>
</svg>
