<svg width="54" height="34" viewBox="0 0 54 34" fill="none" xmlns="http://www.w3.org/2000/svg">
<path d="M12.6431 8.838H22.7492V9.68002H13.5695V16.0174H22.2018V16.8594H13.5695V23.8172H22.8545V24.6592H12.6431V8.838ZM23.6546 8.838H24.7283L29.4866 15.7958L34.3502 8.838L40.9654 0L30.0972 16.527L35.6977 24.6592H34.5818L29.4866 17.2583L24.3704 24.6592H23.2756L28.9182 16.527L23.6546 8.838ZM36.0977 9.68002V8.838H47.6144V9.68002H42.3087V24.6592H41.3824V9.68002H36.0977ZM0 8.838H1.15799L17.126 33.8862L10.5272 24.6592L0.968501 10.0346L0.926392 24.6592H0V8.838ZM47.5211 23.5631C47.3318 23.5631 47.1899 23.4094 47.1899 23.2107C47.1899 23.012 47.3318 22.8583 47.5211 22.8583C47.7126 22.8583 47.8523 23.012 47.8523 23.2107C47.8523 23.4094 47.7126 23.5631 47.5211 23.5631ZM48.4314 22.636H48.9271C48.9339 22.9174 49.1299 23.1066 49.4183 23.1066C49.7405 23.1066 49.923 22.9032 49.923 22.5225V20.1101H50.4277V22.5248C50.4277 23.2107 50.0492 23.6057 49.4228 23.6057C48.8347 23.6057 48.4314 23.2225 48.4314 22.636ZM51.0879 22.6052H51.5881C51.6309 22.9293 51.9329 23.135 52.3677 23.135C52.7733 23.135 53.0707 22.9151 53.0707 22.6123C53.0707 22.3522 52.8815 22.1961 52.4511 22.0897L52.032 21.9832C51.4439 21.839 51.1758 21.541 51.1758 21.0396C51.1758 20.4318 51.649 20.0273 52.3587 20.0273C53.0189 20.0273 53.5011 20.4318 53.5304 21.0065H53.0392C52.9919 20.6919 52.7305 20.4956 52.352 20.4956C51.9531 20.4956 51.6873 20.6966 51.6873 21.0041C51.6873 21.2477 51.8585 21.3872 52.2821 21.4913L52.6404 21.5835C53.3073 21.7467 53.5822 22.0305 53.5822 22.5437C53.5822 23.1965 53.1 23.6057 52.3294 23.6057C51.6084 23.6057 51.124 23.2154 51.0879 22.6052Z" fill="#232323"/>
</svg>
