<svg width="54" height="35" viewBox="0 0 54 35" fill="none" xmlns="http://www.w3.org/2000/svg">
<path d="M26.5005 34.2535C26.3188 34.2535 26.1492 34.2029 25.9918 34.1144L24.3809 33.1155C24.1387 32.9764 24.2598 32.9259 24.3325 32.9006C24.6595 32.7868 24.7201 32.7615 25.0592 32.5592C25.0955 32.5339 25.144 32.5465 25.1803 32.5718L26.4157 33.3431C26.4641 33.3684 26.5247 33.3684 26.561 33.3431L31.3936 30.4223C31.4421 30.397 31.4663 30.3464 31.4663 30.2832V24.4542C31.4663 24.391 31.4421 24.3404 31.3936 24.3151L26.561 21.4069C26.5126 21.3817 26.452 21.3817 26.4157 21.4069L21.5831 24.3151C21.5347 24.3404 21.5104 24.4036 21.5104 24.4542V30.2832C21.5104 30.3338 21.5347 30.397 21.5831 30.4223L22.9033 31.2189C23.6179 31.5982 24.066 31.1557 24.066 30.7131V24.96C24.066 24.8841 24.1266 24.8082 24.2114 24.8082H24.8291C24.9017 24.8082 24.9744 24.8715 24.9744 24.96V30.7131C24.9744 31.712 24.4536 32.2936 23.5452 32.2936C23.2666 32.2936 23.0486 32.2936 22.4309 31.9775L21.1592 31.2189C20.8443 31.0292 20.6505 30.6752 20.6505 30.2959V24.4669C20.6505 24.0875 20.8443 23.7335 21.1592 23.5438L25.9918 20.623C26.2946 20.446 26.7064 20.446 27.0092 20.623L31.8418 23.5438C32.1567 23.7335 32.3504 24.0875 32.3504 24.4669V30.2959C32.3504 30.6752 32.1567 31.0292 31.8418 31.2189L27.0092 34.1397C26.8517 34.2156 26.67 34.2535 26.5005 34.2535ZM27.9902 30.2453C25.8707 30.2453 25.4346 29.2337 25.4346 28.3739C25.4346 28.2981 25.4952 28.2222 25.58 28.2222H26.2098C26.2825 28.2222 26.343 28.2728 26.343 28.3486C26.4399 29.0188 26.7185 29.3475 28.0023 29.3475C29.0197 29.3475 29.4557 29.1073 29.4557 28.5383C29.4557 28.2096 29.3346 27.9693 27.748 27.8049C26.4278 27.6658 25.6042 27.3624 25.6042 26.2623C25.6042 25.2382 26.4278 24.6312 27.8085 24.6312C29.3588 24.6312 30.1219 25.1876 30.2188 26.4014C30.2188 26.4394 30.2067 26.4773 30.1824 26.5152C30.1582 26.5405 30.1219 26.5658 30.0856 26.5658H29.4557C29.3952 26.5658 29.3346 26.5152 29.3225 26.452C29.1772 25.7566 28.8017 25.529 27.8085 25.529C26.6943 25.529 26.561 25.9336 26.561 26.237C26.561 26.6037 26.7185 26.7175 28.2203 26.9198C29.7101 27.1221 30.4126 27.413 30.4126 28.5004C30.4005 29.6131 29.5284 30.2453 27.9902 30.2453Z" fill="#539E43"/>
<path d="M11.5061 11.4559C11.5061 11.2283 11.385 11.0134 11.1912 10.8996L6.05585 7.81434C5.97107 7.76376 5.87418 7.73847 5.77728 7.72583H5.72884C5.63194 7.72583 5.53505 7.76376 5.45027 7.81434L0.314904 10.8996C0.121117 11.0134 0 11.2283 0 11.4559L0.0121117 19.7506C0.0121117 19.8644 0.0726702 19.9782 0.169564 20.0288C0.266457 20.092 0.387574 20.092 0.472356 20.0288L3.52451 18.208C3.71829 18.0942 3.83941 17.8793 3.83941 17.6517V13.7698C3.83941 13.5422 3.96053 13.3273 4.15431 13.2135L5.45027 12.4295C5.54716 12.3663 5.65617 12.341 5.76517 12.341C5.87418 12.341 5.98318 12.3663 6.06796 12.4295L7.36392 13.2135C7.5577 13.3273 7.67882 13.5422 7.67882 13.7698V17.6517C7.67882 17.8793 7.79994 18.0942 7.99372 18.208L11.0459 20.0288C11.1428 20.092 11.2639 20.092 11.3608 20.0288C11.4577 19.9782 11.5182 19.8644 11.5182 19.7506L11.5061 11.4559Z" fill="#454545"/>
<path d="M36.1897 0.0379331C36.0928 -0.0126444 35.9716 -0.0126444 35.8869 0.0379331C35.79 0.101155 35.7294 0.20231 35.7294 0.316109V8.53495C35.7294 8.61081 35.6931 8.68668 35.6204 8.73726C35.5477 8.77519 35.4751 8.77519 35.4024 8.73726L34.1186 7.96595C33.9248 7.85215 33.6947 7.85215 33.5009 7.96595L28.3655 11.0638C28.1717 11.1776 28.0506 11.3926 28.0506 11.6202V17.8033C28.0506 18.0309 28.1717 18.2458 28.3655 18.3596L33.5009 21.4575C33.6947 21.5713 33.9248 21.5713 34.1186 21.4575L39.2539 18.3596C39.4477 18.2458 39.5688 18.0309 39.5688 17.8033V2.38978C39.5688 2.14954 39.4477 1.93459 39.2539 1.82079L36.1897 0.0379331ZM35.7173 15.7675C35.7173 15.8307 35.6931 15.8813 35.6446 15.9066L33.8884 16.9687C33.84 16.994 33.7794 16.994 33.731 16.9687L31.9748 15.9066C31.9263 15.8813 31.9021 15.8181 31.9021 15.7675V13.6433C31.9021 13.58 31.9263 13.5295 31.9748 13.5042L33.731 12.4421C33.7794 12.4168 33.84 12.4168 33.8884 12.4421L35.6446 13.5042C35.6931 13.5295 35.7173 13.5927 35.7173 13.6433V15.7675Z" fill="#454545"/>
<path d="M53.2794 13.5928C53.4732 13.4791 53.5822 13.2641 53.5822 13.0365V11.5318C53.5822 11.3042 53.4611 11.0893 53.2794 10.9755L48.1804 7.89028C47.9866 7.77648 47.7565 7.77648 47.5627 7.89028L42.4273 10.9881C42.2335 11.1019 42.1124 11.3169 42.1124 11.5445V17.7275C42.1124 17.9551 42.2335 18.1701 42.4273 18.2839L47.5264 21.3185C47.7202 21.4323 47.9503 21.4323 48.132 21.3185L51.2205 19.523C51.3173 19.4724 51.3779 19.3586 51.3779 19.2448C51.3779 19.131 51.3173 19.0172 51.2205 18.9667L46.0609 15.8688C45.964 15.8056 45.9034 15.7044 45.9034 15.5906V13.6561C45.9034 13.5423 45.964 13.4285 46.0609 13.3779L47.6717 12.4169C47.7686 12.3537 47.8897 12.3537 47.9866 12.4169L49.5975 13.3779C49.6944 13.4411 49.7549 13.5423 49.7549 13.6561V15.1734C49.7549 15.2872 49.8155 15.401 49.9124 15.4516C50.0093 15.5148 50.1304 15.5148 50.2273 15.4516L53.2794 13.5928Z" fill="#454545"/>
<path d="M47.7929 13.3022C47.8293 13.2769 47.8777 13.2769 47.914 13.3022L48.8951 13.8964C48.9314 13.9217 48.9556 13.9597 48.9556 14.0102V15.1988C48.9556 15.2493 48.9314 15.2873 48.8951 15.3125L47.914 15.9068C47.8777 15.9321 47.8293 15.9321 47.7929 15.9068L46.8119 15.3125C46.7756 15.2873 46.7513 15.2493 46.7513 15.1988V14.0102C46.7513 13.9597 46.7756 13.9217 46.8119 13.8964L47.7929 13.3022Z" fill="#539E43"/>
<mask id="mask0" mask-type="alpha" maskUnits="userSpaceOnUse" x="14" y="7" width="12" height="15">
<path d="M20.0933 7.91567C19.8995 7.80187 19.6693 7.80187 19.4756 7.91567L14.3765 10.9882C14.1827 11.102 14.0737 11.317 14.0737 11.5446V17.7024C14.0737 17.93 14.1948 18.1449 14.3765 18.2587L19.4756 21.3313C19.6693 21.4451 19.8995 21.4451 20.0933 21.3313L25.1923 18.2587C25.3861 18.1449 25.4951 17.93 25.4951 17.7024V11.5446C25.4951 11.317 25.374 11.102 25.1923 10.9882L20.0933 7.91567Z" fill="white"/>
</mask>
<g mask="url(#mask0)">
<path d="M20.0933 7.91567C19.8995 7.80187 19.6693 7.80187 19.4756 7.91567L14.3765 10.9882C14.1827 11.102 14.0737 11.317 14.0737 11.5446V17.7024C14.0737 17.93 14.1948 18.1449 14.3765 18.2587L19.4756 21.3313C19.6693 21.4451 19.8995 21.4451 20.0933 21.3313L25.1923 18.2587C25.3861 18.1449 25.4951 17.93 25.4951 17.7024V11.5446C25.4951 11.317 25.374 11.102 25.1923 10.9882L20.0933 7.91567Z" fill="url(#paint0_linear)"/>
<path d="M25.2051 10.9881L20.0818 7.91552C20.0334 7.89023 19.9728 7.86494 19.9244 7.85229L14.1834 18.1195C14.2319 18.1827 14.2924 18.2333 14.353 18.2712L19.4762 21.3438C19.6216 21.4323 19.7911 21.4576 19.9486 21.407L25.3383 11.1145C25.302 11.064 25.2535 11.026 25.2051 10.9881Z" fill="url(#paint1_linear)"/>
<path fill-rule="evenodd" clip-rule="evenodd" d="M25.2166 18.258C25.362 18.1695 25.471 18.0177 25.5194 17.8534L19.8996 7.83914C19.7542 7.81385 19.5968 7.8265 19.4636 7.91501L14.3766 10.9749L19.8632 21.419C19.9359 21.4064 20.0207 21.3811 20.0934 21.3432L25.2166 18.258Z" fill="url(#paint2_linear)"/>
<path fill-rule="evenodd" clip-rule="evenodd" d="M25.2168 18.2583L20.1056 21.3309C20.0329 21.3688 19.9603 21.3941 19.8755 21.4067L19.9724 21.5964L25.6407 18.1698V18.0939L25.4953 17.8411C25.4711 18.0181 25.3621 18.1698 25.2168 18.2583Z" fill="url(#paint3_linear)"/>
<path fill-rule="evenodd" clip-rule="evenodd" d="M25.2168 18.2583L20.1056 21.3309C20.0329 21.3688 19.9603 21.3941 19.8755 21.4067L19.9724 21.5964L25.6407 18.1698V18.0939L25.4953 17.8411C25.4711 18.0181 25.3621 18.1698 25.2168 18.2583Z" fill="url(#paint4_linear)"/>
</g>
<defs>
<linearGradient id="paint0_linear" x1="21.8618" y1="10.2061" x2="15.924" y2="19.1428" gradientUnits="userSpaceOnUse">
<stop stop-color="#41873F"/>
<stop offset="0.3288" stop-color="#418B3D"/>
<stop offset="0.6352" stop-color="#419637"/>
<stop offset="0.9319" stop-color="#3FA92D"/>
<stop offset="1" stop-color="#3FAE2A"/>
</linearGradient>
<linearGradient id="paint1_linear" x1="19.0109" y1="15.3445" x2="33.2763" y2="7.92057" gradientUnits="userSpaceOnUse">
<stop offset="0.1376" stop-color="#41873F"/>
<stop offset="0.4032" stop-color="#54A044"/>
<stop offset="0.7136" stop-color="#66B848"/>
<stop offset="0.9081" stop-color="#6CC04A"/>
</linearGradient>
<linearGradient id="paint2_linear" x1="13.8876" y1="14.623" x2="25.6865" y2="14.623" gradientUnits="userSpaceOnUse">
<stop offset="0.0919165" stop-color="#6CC04A"/>
<stop offset="0.2864" stop-color="#66B848"/>
<stop offset="0.5968" stop-color="#54A044"/>
<stop offset="0.8624" stop-color="#41873F"/>
</linearGradient>
<linearGradient id="paint3_linear" x1="13.8877" y1="19.7291" x2="25.6866" y2="19.7291" gradientUnits="userSpaceOnUse">
<stop offset="0.0919165" stop-color="#6CC04A"/>
<stop offset="0.2864" stop-color="#66B848"/>
<stop offset="0.5968" stop-color="#54A044"/>
<stop offset="0.8624" stop-color="#41873F"/>
</linearGradient>
<linearGradient id="paint4_linear" x1="27.4056" y1="9.91471" x2="24.1581" y2="26.2148" gradientUnits="userSpaceOnUse">
<stop stop-color="#41873F"/>
<stop offset="0.3288" stop-color="#418B3D"/>
<stop offset="0.6352" stop-color="#419637"/>
<stop offset="0.9319" stop-color="#3FA92D"/>
<stop offset="1" stop-color="#3FAE2A"/>
</linearGradient>
</defs>
</svg>
