<svg width="53" height="47" viewBox="0 0 53 47" fill="none" xmlns="http://www.w3.org/2000/svg">
<path d="M10.0848 0.366699H43.5662C48.6424 0.366699 52.7466 4.11765 52.7466 8.75698V38.1723C52.7466 42.8117 48.6424 46.5626 43.5662 46.5626H10.0848C5.00859 46.5626 0.904419 42.8117 0.904419 38.1723V8.75698C0.904419 4.11765 5.00859 0.366699 10.0848 0.366699Z" fill="#00005B"/>
<path d="M13.2169 32.763V12.4486C13.2169 12.3105 13.2817 12.2315 13.4329 12.2315C13.8001 12.2315 14.1458 12.2315 14.6426 12.2117C15.161 12.192 15.701 12.192 16.2842 12.1723C16.8675 12.1525 17.4939 12.1525 18.1635 12.1328C18.8332 12.113 19.4812 12.113 20.1292 12.113C21.9005 12.113 23.3693 12.3105 24.579 12.725C25.659 13.0606 26.6527 13.6134 27.4735 14.3439C28.1647 14.9756 28.7048 15.7455 29.0504 16.5944C29.3744 17.4236 29.5472 18.2725 29.5472 19.1609C29.5472 20.8587 29.1152 22.2603 28.2511 23.3659C27.3871 24.4714 26.1775 25.3006 24.7734 25.7744C23.3045 26.2679 21.6845 26.4456 19.9132 26.4456C19.3948 26.4456 19.0492 26.4456 18.8332 26.4259C18.6171 26.4061 18.3147 26.4061 17.9043 26.4061V32.7433C17.9259 32.8815 17.8179 32.9999 17.6667 33.0197H13.4761C13.3033 33.0197 13.2169 32.9407 13.2169 32.763ZM17.9259 16.0417V22.6749C18.2283 22.6947 18.5091 22.7144 18.7684 22.7144H19.9132C20.7556 22.7144 21.5981 22.596 22.3973 22.3591C23.0885 22.1814 23.6934 21.8063 24.1686 21.3127C24.6222 20.8192 24.8382 20.148 24.8382 19.2793C24.8598 18.6673 24.687 18.0553 24.3414 17.5223C23.9742 17.009 23.4557 16.6142 22.8293 16.397C22.0301 16.1009 21.1661 15.9824 20.2804 16.0022C19.7188 16.0022 19.222 16.0022 18.8116 16.0219C18.3795 16.0022 18.0771 16.0219 17.9259 16.0417Z" fill="#9999FF"/>
<path d="M32.5712 17.1868H36.3514C36.5674 17.1868 36.7402 17.325 36.805 17.5026C36.8698 17.6606 36.913 17.8185 36.9346 17.9962C36.9778 18.1936 37.021 18.4108 37.0426 18.6082C37.0642 18.8253 37.0858 19.0622 37.0858 19.3189C37.7338 18.6279 38.5115 18.0554 39.3971 17.6211C40.3908 17.1078 41.5356 16.8511 42.6805 16.8511C42.8317 16.8314 42.9613 16.9301 42.9829 17.0683V20.9969C42.9829 21.1549 42.8749 21.2141 42.6373 21.2141C41.8596 21.1944 41.0604 21.2536 40.3044 21.4115C39.6779 21.53 39.0731 21.7076 38.4899 21.9445C38.0795 22.1222 37.6906 22.3591 37.3882 22.675V32.7433C37.3882 32.9407 37.3018 33.0197 37.1074 33.0197H32.852C32.6792 33.0395 32.528 32.9407 32.5064 32.7828V21.7669C32.5064 21.2931 32.5064 20.7995 32.4848 20.2862C32.4632 19.7729 32.4632 19.2597 32.4416 18.7464C32.4416 18.2923 32.3984 17.858 32.3552 17.4039C32.3336 17.3052 32.3984 17.2065 32.5064 17.1868C32.5064 17.167 32.5496 17.167 32.5712 17.1868Z" fill="#9999FF"/>
</svg>
