<svg width="49" height="47" viewBox="0 0 49 47" fill="none" xmlns="http://www.w3.org/2000/svg">
<path d="M9.35042 0.327881H40.0293C44.6806 0.327881 48.4412 4.07883 48.4412 8.71816V38.1335C48.4412 42.7728 44.6806 46.5238 40.0293 46.5238H9.35042C4.69911 46.5238 0.938477 42.7728 0.938477 38.1335V8.71816C0.938477 4.07883 4.69911 0.327881 9.35042 0.327881Z" fill="#001E36"/>
<path d="M11.6266 32.7244V12.4101C11.6266 12.2719 11.686 12.1929 11.8245 12.1929C12.161 12.1929 12.4777 12.1929 12.9329 12.1732C13.4079 12.1534 13.9028 12.1534 14.4372 12.1337C14.9716 12.1139 15.5456 12.1139 16.1591 12.0942C16.7727 12.0745 17.3665 12.0745 17.9603 12.0745C19.5833 12.0745 20.9292 12.2719 22.0376 12.6865C23.0273 13.0221 23.9377 13.5748 24.6899 14.3053C25.3232 14.937 25.818 15.707 26.1347 16.5559C26.4316 17.385 26.59 18.2339 26.59 19.1223C26.59 20.8201 26.1941 22.2218 25.4024 23.3273C24.6107 24.4329 23.5023 25.262 22.2157 25.7358C20.8698 26.2294 19.3854 26.407 17.7624 26.407C17.2873 26.407 16.9706 26.407 16.7727 26.3873C16.5748 26.3676 16.2977 26.3676 15.9216 26.3676V32.7047C15.9414 32.8429 15.8425 32.9613 15.7039 32.9811H11.8641C11.7058 32.9811 11.6266 32.9021 11.6266 32.7244ZM15.9414 16.0031V22.6364C16.2185 22.6561 16.4758 22.6758 16.7133 22.6758H17.7624C18.5343 22.6758 19.3062 22.5574 20.0385 22.3205C20.6719 22.1428 21.2261 21.7677 21.6615 21.2742C22.0772 20.7806 22.2751 20.1094 22.2751 19.2408C22.2949 18.6288 22.1366 18.0168 21.8199 17.4837C21.4834 16.9704 21.0084 16.5756 20.4344 16.3584C19.7021 16.0623 18.9103 15.9439 18.0988 15.9636C17.5842 15.9636 17.129 15.9636 16.7529 15.9833C16.3571 15.9636 16.08 15.9833 15.9414 16.0031Z" fill="#31A8FF"/>
<path d="M38.9407 21.4319C38.3469 21.116 37.7135 20.8988 37.0406 20.7606C36.3082 20.6027 35.5759 20.504 34.8238 20.504C34.4279 20.4843 34.0123 20.5435 33.6362 20.6422C33.3789 20.7014 33.1612 20.8396 33.0226 21.037C32.9237 21.195 32.8643 21.3924 32.8643 21.5701C32.8643 21.7477 32.9434 21.9254 33.0622 22.0834C33.2403 22.3005 33.4778 22.4782 33.7352 22.6164C34.1904 22.8533 34.6654 23.0704 35.1404 23.2679C36.2093 23.6232 37.2385 24.1168 38.1885 24.709C38.8417 25.1236 39.3761 25.6764 39.7522 26.3476C40.0689 26.9793 40.2272 27.6703 40.2074 28.381C40.2272 29.3089 39.9501 30.2367 39.4355 31.0067C38.8813 31.7963 38.1094 32.4083 37.2187 32.7637C36.2488 33.1783 35.0613 33.3954 33.6362 33.3954C32.7257 33.3954 31.835 33.3165 30.9444 33.1388C30.2516 33.0203 29.5589 32.8032 28.9255 32.507C28.787 32.4281 28.688 32.2899 28.7078 32.132V28.6969C28.7078 28.6376 28.7276 28.5587 28.787 28.5192C28.8463 28.4797 28.9057 28.4995 28.9651 28.5389C29.737 28.993 30.5485 29.3089 31.4194 29.5063C32.1715 29.7037 32.9632 29.8024 33.7549 29.8024C34.5071 29.8024 35.0415 29.7037 35.3978 29.526C35.7144 29.3878 35.9322 29.0522 35.9322 28.6969C35.9322 28.4205 35.7738 28.1638 35.4571 27.9072C35.1404 27.6506 34.4873 27.3544 33.5174 26.9793C32.508 26.624 31.5777 26.1502 30.7069 25.5579C30.0933 25.1236 29.5787 24.5511 29.2026 23.8799C28.8859 23.2481 28.7276 22.5572 28.7474 21.8662C28.7474 21.0173 28.9849 20.2079 29.4203 19.4774C29.9151 18.6878 30.6475 18.056 31.4986 17.6612C32.4288 17.1874 33.5966 16.9702 35.0019 16.9702C35.8134 16.9702 36.6447 17.0294 37.4562 17.1479C38.05 17.2269 38.624 17.3848 39.1584 17.602C39.2376 17.6217 39.3167 17.7007 39.3563 17.7796C39.3761 17.8586 39.3959 17.9376 39.3959 18.0165V21.2345C39.3959 21.3134 39.3563 21.3924 39.2969 21.4319C39.1188 21.4714 39.0198 21.4714 38.9407 21.4319Z" fill="#31A8FF"/>
</svg>
