<svg width="54" height="50" viewBox="0 0 54 50" fill="none" xmlns="http://www.w3.org/2000/svg">
<path d="M43.7021 16.0859C43.1507 15.8867 42.5794 15.6983 41.9911 15.5201C42.0878 15.1059 42.1765 14.6971 42.2554 14.2953C43.5507 7.69717 42.7038 2.38166 39.812 0.631572C37.0392 -1.04653 32.5044 0.70316 27.9244 4.88606C27.484 5.28829 27.0424 5.71415 26.6009 6.16046C26.3068 5.86517 26.0131 5.57981 25.7202 5.30686C20.9203 0.834223 16.1091 -1.05061 13.2202 0.70455C10.45 2.38752 9.6296 7.38461 10.7955 13.6377C10.9081 14.2417 11.0397 14.8585 11.1885 15.4856C10.5076 15.6885 9.85023 15.9047 9.22126 16.1348C3.59389 18.1938 0 21.4207 0 24.7679C0 28.2249 3.85805 31.6923 9.71938 33.7948C10.1819 33.9607 10.6619 34.1175 11.1565 34.2665C10.996 34.9447 10.8563 35.6094 10.7391 36.2577C9.62742 42.4022 10.4956 47.2813 13.2584 48.9536C16.1122 50.6807 20.9015 48.9055 25.5652 44.6272C25.9338 44.289 26.3037 43.9304 26.6743 43.5545C27.1547 44.0399 27.6343 44.4993 28.1113 44.9303C32.6286 49.0098 37.0901 50.6571 39.8504 48.9801C42.7013 47.2481 43.6279 42.0069 42.425 35.63C42.3331 35.143 42.2262 34.6455 42.1061 34.1391C42.4425 34.0347 42.7727 33.927 43.0946 33.815C49.188 31.6963 53.1526 28.271 53.1526 24.7679C53.1526 21.4086 49.4428 18.1599 43.7021 16.0859ZM42.3805 31.5531C42.0899 31.6541 41.7916 31.7517 41.4878 31.8463C40.8151 29.6114 39.9072 27.2348 38.7962 24.7795C39.8564 22.3826 40.7292 20.0365 41.383 17.8161C41.9268 17.9812 42.4545 18.1553 42.963 18.3391C47.8817 20.1161 50.882 22.7434 50.882 24.7679C50.882 26.9243 47.6417 29.7236 42.3805 31.5531ZM40.1975 36.0928C40.7294 38.9126 40.8053 41.462 40.453 43.4549C40.1364 45.2457 39.4998 46.4397 38.7126 46.9179C37.0375 47.9354 33.4554 46.6127 29.5921 43.1239C29.1493 42.7239 28.7032 42.2969 28.2557 41.8449C29.7533 40.1259 31.2502 38.1275 32.7111 35.908C35.2806 35.6688 37.7082 35.2776 39.9097 34.7435C40.0182 35.2025 40.1145 35.6527 40.1975 36.0928ZM18.1209 46.742C16.4844 47.3486 15.1809 47.366 14.393 46.8892C12.7164 45.8743 12.0194 41.9569 12.9701 36.7021C13.079 36.1003 13.2086 35.4821 13.358 34.8502C15.5354 35.3555 17.9452 35.7191 20.5209 35.9382C21.9917 38.11 23.5317 40.1062 25.0837 41.8542C24.7446 42.1977 24.4069 42.5248 24.071 42.833C22.0088 44.7247 19.9422 46.0669 18.1209 46.742ZM10.4538 31.5399C7.86198 30.6102 5.7216 29.4019 4.25447 28.0835C2.93616 26.8986 2.27057 25.7223 2.27057 24.7679C2.27057 22.7367 5.15611 20.1459 9.96868 18.385C10.5526 18.1713 11.1639 17.97 11.7983 17.7808C12.4634 20.0514 13.3359 22.4253 14.3888 24.8259C13.3223 27.262 12.4374 29.6738 11.7657 31.971C11.3135 31.8346 10.8753 31.691 10.4538 31.5399ZM13.0239 13.1801C12.025 7.82258 12.6884 3.78106 14.3578 2.76691C16.136 1.68653 20.0681 3.22692 24.2125 7.08882C24.4774 7.33566 24.7433 7.59401 25.01 7.8613C23.4657 9.60156 21.9397 11.5828 20.482 13.7418C17.9822 13.9849 15.5893 14.3755 13.3892 14.8986C13.2509 14.3147 13.1284 13.741 13.0239 13.1801ZM35.9515 19.1215C35.4256 18.1681 34.8856 17.2373 34.3352 16.3319C36.0311 16.5569 37.6559 16.8555 39.1818 17.221C38.7237 18.7618 38.1527 20.3728 37.4806 22.0243C36.9985 21.0636 36.4885 20.0951 35.9515 19.1215ZM26.6017 9.56433C27.649 10.7551 28.6979 12.0846 29.7295 13.5271C28.6899 13.4756 27.6375 13.4488 26.5763 13.4488C25.5252 13.4488 24.4805 13.475 23.4473 13.5256C24.48 12.0965 25.538 10.7688 26.6017 9.56433ZM17.1919 19.138C16.6666 20.0941 16.1661 21.0574 15.6915 22.0225C15.0303 20.3768 14.4646 18.7584 14.0025 17.1958C15.519 16.8396 17.1362 16.5484 18.8213 16.3277C18.2631 17.2415 17.7187 18.1792 17.1919 19.1378V19.138ZM18.8699 33.378C17.1288 33.1742 15.4873 32.898 13.9712 32.5516C14.4407 30.9611 15.0188 29.3082 15.6941 27.627C16.1699 28.5914 16.6723 29.5552 17.2009 30.5133H17.201C17.7395 31.4894 18.2973 32.4456 18.8699 33.378ZM26.6645 40.1394C25.5883 38.9208 24.5148 37.5728 23.4665 36.1229C24.4842 36.1648 25.5218 36.1863 26.5763 36.1863C27.6597 36.1863 28.7307 36.1606 29.7849 36.1114C28.7498 37.5874 27.7047 38.9375 26.6645 40.1394ZM37.5023 27.5413C38.2127 29.2407 38.8116 30.8849 39.2871 32.4484C37.746 32.8173 36.0821 33.1145 34.3289 33.3353C34.8807 32.4177 35.4254 31.4709 35.9606 30.4969C36.502 29.5116 37.0162 28.5247 37.5023 27.5413ZM33.9937 29.3064C33.1628 30.8183 32.3098 32.2616 31.4439 33.624C29.8666 33.7423 28.2371 33.8033 26.5763 33.8033C24.9222 33.8033 23.3133 33.7494 21.7639 33.6438C20.863 32.2636 19.9915 30.816 19.1659 29.3194H19.1661C18.3427 27.8269 17.5849 26.3218 16.8982 24.8251C17.5847 23.3249 18.3405 21.8181 19.1592 20.3282L19.159 20.3285C19.9798 18.8347 20.8437 17.3942 21.7363 16.0226C23.3171 15.8972 24.938 15.8317 26.5762 15.8317H26.5763C28.2219 15.8317 29.8449 15.8977 31.4252 16.0242C32.3042 17.3857 33.1622 18.8216 33.9862 20.3156C34.8197 21.8264 35.5853 23.3232 36.2776 24.7912C35.5873 26.2844 34.8235 27.7963 33.9937 29.3064ZM38.6778 2.69602C40.4577 3.77322 41.1499 8.11757 40.0316 13.8144C39.9603 14.1779 39.8799 14.5481 39.7927 14.9233C37.5875 14.3893 35.1929 13.992 32.6858 13.7451C31.2253 11.5624 29.7118 9.57813 28.1926 7.86021C28.6011 7.44785 29.009 7.05467 29.4151 6.68362C33.3392 3.09973 37.0068 1.68474 38.6778 2.69602ZM26.5763 19.7868C29.1976 19.7868 31.3227 22.0168 31.3227 24.7679C31.3227 27.5188 29.1976 29.749 26.5763 29.749C23.955 29.749 21.83 27.5188 21.83 24.7679C21.83 22.0168 23.955 19.7868 26.5763 19.7868Z" fill="#00D8FF"/>
</svg>
