<svg width="46" height="29" viewBox="0 0 46 29" fill="none" xmlns="http://www.w3.org/2000/svg">
<path d="M22.9638 0C16.8401 0 13.0128 3.21326 11.4819 9.63979C13.7783 6.42653 16.4574 5.22155 19.5192 6.02487C21.2662 6.48321 22.5148 7.81323 23.8969 9.28553C26.1484 11.6839 28.7542 14.4597 34.4457 14.4597C40.5694 14.4597 44.3967 11.2464 45.9276 4.8199C43.6312 8.03316 40.9521 9.23813 37.8903 8.43482C36.1433 7.97648 34.8947 6.64646 33.5126 5.17416C31.2611 2.77581 28.6553 0 22.9638 0ZM11.4819 14.4597C5.35822 14.4597 1.53092 17.673 0 24.0995C2.29638 20.8862 4.97549 19.6812 8.03733 20.4846C9.78428 20.9429 11.0329 22.2729 12.415 23.7452C14.6665 26.1436 17.2723 28.9194 22.9638 28.9194C29.0875 28.9194 32.9148 25.7061 34.4457 19.2796C32.1493 22.4928 29.4702 23.6978 26.4084 22.8945C24.6614 22.4362 23.4128 21.1061 22.0307 19.6338C19.7792 17.2355 17.1734 14.4597 11.4819 14.4597Z" fill="url(#paint0_linear)"/>
<defs>
<linearGradient id="paint0_linear" x1="-1.27577" y1="9.2542" x2="39.3224" y2="31.5591" gradientUnits="userSpaceOnUse">
<stop stop-color="#2298BD"/>
<stop offset="1" stop-color="#0ED7B5"/>
</linearGradient>
</defs>
</svg>
