<svg width="21" height="18" viewBox="0 0 21 18" fill="none" xmlns="http://www.w3.org/2000/svg">
<path d="M6.27996 12.855C4.92773 12.8301 3.74914 12.0861 3.11348 10.9886C3.54374 10.9884 3.96124 10.9306 4.35833 10.8225L4.32536 9.84984C2.85635 9.55481 1.69863 8.39658 1.40281 6.92721C1.82314 7.06586 2.26955 7.1475 2.73226 7.16215L4.47804 7.21741L3.02595 6.24672C2.02267 5.57605 1.36375 4.43234 1.36375 3.13605C1.36375 2.70897 1.43522 2.29913 1.56678 1.91749C3.72379 4.24994 6.7555 5.76208 10.1424 5.93206L10.8049 5.96531L10.6545 5.31931C10.591 5.04681 10.5578 4.7615 10.5578 4.4672C10.5578 2.40355 12.2305 0.730591 14.2935 0.730591C15.3682 0.730591 16.3387 1.184 17.0206 1.91069L17.2101 2.11264L17.4818 2.05912C17.9673 1.96349 18.4388 1.82898 18.893 1.65901C18.6271 1.97296 18.3103 2.24273 17.9553 2.45554L18.2718 3.38083C18.5722 3.34491 18.868 3.29442 19.1586 3.22997C18.8718 3.51076 18.5643 3.77015 18.239 4.00499L18.02 4.16305L18.0321 4.43282C18.04 4.60694 18.0439 4.78218 18.0439 4.95848C18.0439 10.3422 13.9499 16.5128 6.49282 16.5128C4.90746 16.5128 3.39835 16.1915 2.02394 15.6123C3.73096 15.4216 5.29503 14.7551 6.57919 13.7485L7.68586 12.881L6.27996 12.855Z" fill="#232323" stroke="#232323"/>
</svg>
