<svg width="49" height="47" viewBox="0 0 49 47" fill="none" xmlns="http://www.w3.org/2000/svg">
<path d="M9.33131 0.596924H39.9405C44.5812 0.596924 48.3333 4.34787 48.3333 8.98721V38.4025C48.3333 43.0419 44.5812 46.7928 39.9405 46.7928H9.33131C4.69057 46.7928 0.938477 43.0419 0.938477 38.4025V8.98721C0.938477 4.34787 4.69057 0.596924 9.33131 0.596924Z" fill="#470137"/>
<path d="M25.8603 12.7379L19.936 22.5101L26.2553 32.8746C26.2948 32.9536 26.3145 33.0325 26.2948 33.1115C26.275 33.1905 26.196 33.1312 26.0775 33.151H21.5553C21.2393 33.151 21.0221 33.1313 20.8839 32.9338C20.4691 32.1047 20.0347 31.2953 19.62 30.4661C19.2053 29.6567 18.7511 28.8275 18.2771 27.9786C17.8032 27.1297 17.3292 26.2808 16.8553 25.4122H16.8158C16.4011 26.2611 15.9469 27.11 15.4927 27.9589C15.0385 28.8078 14.5843 29.6567 14.1498 30.4858C13.6956 31.315 13.2414 32.1639 12.7872 32.9733C12.7082 33.1707 12.5503 33.1905 12.333 33.1905H7.98851C7.90952 33.1905 7.85028 33.23 7.85028 33.1313C7.83053 33.0523 7.85028 32.9733 7.88977 32.9141L14.0314 22.8457L8.04775 12.7182C7.98851 12.6392 7.96876 12.5603 8.00826 12.5208C8.04775 12.4615 8.12675 12.4418 8.20574 12.4418H12.6885C12.7872 12.4418 12.886 12.4615 12.965 12.4813C13.044 12.5208 13.1032 12.58 13.1624 12.659C13.5377 13.5079 13.9721 14.3568 14.4263 15.2057C14.9003 16.0546 15.3545 16.8837 15.8482 17.7129C16.3221 18.542 16.7566 19.3712 17.1713 20.2201H17.2108C17.6255 19.3514 18.0599 18.5025 18.4944 17.6734C18.9288 16.8442 19.383 16.0151 19.8372 15.1859C20.2914 14.3568 20.7259 13.5079 21.1603 12.6984C21.1801 12.6195 21.2196 12.5405 21.2788 12.501C21.3578 12.4615 21.4368 12.4418 21.5355 12.4615H25.7023C25.8011 12.4418 25.8998 12.501 25.9196 12.5997C25.9393 12.6195 25.8998 12.6984 25.8603 12.7379ZM34.9838 33.5656C33.5225 33.5853 32.0611 33.2892 30.738 32.6772C29.4939 32.1047 28.467 31.1571 27.7561 29.9923C27.0254 28.788 26.67 27.2877 26.67 25.4912C26.6502 24.0303 27.0254 22.5891 27.7561 21.3256C28.5065 20.0424 29.5927 18.9763 30.896 18.2656C32.2784 17.4957 33.9372 17.1206 35.8922 17.1206C35.991 17.1206 36.1292 17.1206 36.3069 17.1404C36.4847 17.1601 36.6821 17.1601 36.9191 17.1798V10.9414C36.9191 10.8032 36.9783 10.7243 37.1166 10.7243H41.1254C41.2241 10.7045 41.3031 10.7835 41.3229 10.8625V29.6962C41.3229 30.0515 41.3426 30.4464 41.3624 30.8807C41.4019 31.2953 41.4216 31.6901 41.4414 32.0257C41.4414 32.1639 41.3821 32.2824 41.2439 32.3416C40.217 32.7759 39.1309 33.0918 38.025 33.2892C37.0178 33.4669 36.0107 33.5656 34.9838 33.5656ZM36.9191 29.6172V20.9308C36.7414 20.8913 36.5636 20.8518 36.3859 20.8321C36.1687 20.8123 35.9515 20.7926 35.7342 20.7926C34.9641 20.7926 34.1939 20.9505 33.5027 21.3059C32.8313 21.6415 32.2586 22.135 31.8242 22.7668C31.3897 23.3985 31.1725 24.2474 31.1725 25.274C31.1527 25.965 31.2712 26.6559 31.5082 27.3074C31.7057 27.8404 32.0019 28.3142 32.3968 28.7091C32.7721 29.0644 33.2263 29.3408 33.7397 29.4987C34.2729 29.6764 34.8258 29.7554 35.3788 29.7554C35.675 29.7554 35.9515 29.7357 36.2082 29.7159C36.4649 29.7357 36.6821 29.6962 36.9191 29.6172Z" fill="#FF61F6"/>
</svg>
